<?xml version="1.0" standalone="no"?>
<!DOCTYPE svg PUBLIC "-//W3C//DTD SVG 1.1//EN" "http://www.w3.org/Graphics/SVG/1.1/DTD/svg11.dtd" >
<svg xmlns="http://www.w3.org/2000/svg">
<metadata></metadata>
<defs>
<font id="apex_sanslight" horiz-adv-x="1228" >
<font-face units-per-em="2048" ascent="1536" descent="-512" />
<missing-glyph horiz-adv-x="409" />
<glyph unicode="&#xfb01;" horiz-adv-x="1392" d="M82 969v24l194 33v231q0 289 357 289q87 0 127 -8v-55q-50 8 -127 8q-295 0 -295 -234v-233h350v-55h-350v-969h-62v969h-194zM1032 1413q0 25 18 43.5t44 18.5q25 0 43 -18.5t18 -43.5q0 -26 -18 -43.5t-43 -17.5q-26 0 -44 17.5t-18 43.5zM1063 139v885h61v-881 q0 -59 20 -81.5t75 -22.5v-49q-81 0 -118.5 36.5t-37.5 112.5z" />
<glyph unicode="&#xfb02;" horiz-adv-x="1392" d="M82 969v24l194 33v231q0 289 357 289q87 0 127 -8v-55q-50 8 -127 8q-295 0 -295 -234v-233h350v-55h-350v-969h-62v969h-194zM1063 139v1397h61v-1393q0 -59 20 -81.5t75 -22.5v-49q-81 0 -118.5 36.5t-37.5 112.5z" />
<glyph horiz-adv-x="2048" />
<glyph horiz-adv-x="2048" />
<glyph unicode="&#xd;" horiz-adv-x="2048" />
<glyph unicode=" "  horiz-adv-x="409" />
<glyph unicode="&#x09;" horiz-adv-x="409" />
<glyph unicode="&#xa0;" horiz-adv-x="409" />
<glyph unicode="!" horiz-adv-x="450" d="M164 51q0 25 17.5 43.5t43.5 18.5q25 0 43.5 -18.5t18.5 -43.5q0 -26 -18.5 -43.5t-43.5 -17.5q-26 0 -43.5 17.5t-17.5 43.5zM180 1536h90l-28 -1106h-33z" />
<glyph unicode="&#x22;" horiz-adv-x="675" d="M164 1536h102l-33 -512h-36zM410 1536h102l-33 -512h-37z" />
<glyph unicode="#" horiz-adv-x="1198" d="M39 786l18 58h201l135 360h-194l18 58h199l104 274h64l-105 -274h420l105 274h61l-104 -274h198l-18 -58h-201l-137 -360h196l-18 -58h-201l-102 -274h-64l105 274h-420l-104 -274h-62l103 274h-197zM319 844h420l138 360h-420z" />
<glyph unicode="$" d="M145 1001q0 152 119.5 220.5t374.5 68.5q26 0 84 -4l86 250h57l-92 -254q184 -16 281 -53v-55q-52 20 -177.5 40.5t-238.5 20.5q-231 0 -332.5 -50.5t-101.5 -183.5q0 -101 87 -140q66 -29 251 -43q18 -1 73 -5q77 -6 125 -10.5t103 -14t87 -21.5t65 -31.5t49.5 -45.5 t27 -63t10.5 -84q0 -150 -124 -223.5t-392 -73.5h-59l-84 -246h-57l92 250q-218 18 -307 57v55q52 -20 177 -40.5t238 -20.5q234 0 343.5 56.5t109.5 183.5q0 114 -81 159q-60 33 -228 50q-20 2 -93 8q-224 20 -293 36q-124 30 -160 105q-20 41 -20 102z" />
<glyph unicode="%" horiz-adv-x="1886" d="M123 1159q0 202 81.5 294.5t260.5 92.5q177 0 258.5 -92.5t81.5 -294.5q0 -205 -81 -297t-259 -92q-179 0 -260.5 92t-81.5 297zM186 1159q0 -179 68 -256.5t211 -77.5q141 0 208.5 77.5t67.5 256.5t-67 255.5t-209 76.5q-143 0 -211 -76.5t-68 -255.5zM362 0l1086 1536 h76l-1086 -1536h-76zM1081 377q0 205 81 297t259 92q179 0 260.5 -92t81.5 -297q0 -202 -81.5 -294.5t-260.5 -92.5q-177 0 -258.5 92.5t-81.5 294.5zM1145 377q0 -179 67 -255.5t209 -76.5q143 0 211 76.5t68 255.5t-68 256.5t-211 77.5q-141 0 -208.5 -77.5t-67.5 -256.5z " />
<glyph unicode="&#x26;" horiz-adv-x="1505" d="M100 469q0 158 84 264.5t205 153.5q-43 165 -43 323q0 50 9 94.5t33 90t61.5 78t99 53t141.5 20.5q84 0 143 -17.5t90.5 -50.5t44.5 -71t13 -88q0 -64 -20 -111h-54q19 48 19 111q0 38 -9 66.5t-33 55.5t-73 41.5t-121 14.5q-84 0 -143.5 -26t-89 -71t-42 -93t-12.5 -105 q0 -151 46 -312.5t127.5 -307t204 -267t266.5 -188.5q131 66 208.5 181.5t77.5 281.5q0 389 -329 389q-138 0 -267 -37v57q103 35 267 35q182 0 285.5 -109.5t103.5 -334.5q0 -167 -76 -290.5t-207 -199.5q154 -55 315 -55v-55q-203 0 -381 76q-171 -76 -364 -76 q-132 0 -236 26.5t-182.5 82.5t-120 149.5t-41.5 220.5zM160 469q0 -111 38.5 -194t109.5 -132.5t164 -73.5t208 -24q161 0 299 53q-206 106 -353.5 301t-219.5 432q-46 -18 -86.5 -46.5t-78 -71.5t-59.5 -106t-22 -138z" />
<glyph unicode="'" horiz-adv-x="430" d="M164 1536h102l-33 -512h-36z" />
<glyph unicode="(" horiz-adv-x="559" d="M133 625q0 184 24.5 357.5t65 304.5t82 226t84.5 158h68q-43 -64 -85 -158.5t-82.5 -225.5t-65.5 -304.5t-25 -357.5t25 -358t65.5 -305t82.5 -225.5t85 -158.5h-68q-43 63 -84.5 158t-82 226t-65 305t-24.5 358z" />
<glyph unicode=")" horiz-adv-x="559" d="M102 -422q43 64 85 158.5t82.5 225.5t65.5 305t25 358t-25 357.5t-65.5 304.5t-82.5 225.5t-85 158.5h68q43 -63 84.5 -158t82 -226t65 -304.5t24.5 -357.5t-24.5 -358t-65 -305t-82 -226t-84.5 -158h-68z" />
<glyph unicode="*" horiz-adv-x="788" d="M29 1247l22 66l236 -105l-4 -14zM150 881l174 192l12 -8l-129 -225zM360 1536h70l-27 -258h-16zM457 1065l12 8l174 -192l-57 -41zM504 1208l237 107l21 -68l-254 -53z" />
<glyph unicode="+" horiz-adv-x="1064" d="M133 670v57h371v371h57v-371h371v-57h-371v-371h-57v371h-371z" />
<glyph unicode="," horiz-adv-x="450" d="M147 -233l52 229q-35 12 -35 55q0 27 17 44.5t44 17.5t44.5 -17.5t17.5 -44.5q0 -16 -6 -28l-119 -256h-15z" />
<glyph unicode="-" horiz-adv-x="757" d="M145 670v57h467v-57h-467z" />
<glyph unicode="." horiz-adv-x="450" d="M164 51q0 25 17.5 43.5t43.5 18.5q25 0 43.5 -18.5t18.5 -43.5q0 -26 -18.5 -43.5t-43.5 -17.5q-26 0 -43.5 17.5t-17.5 43.5z" />
<glyph unicode="/" horiz-adv-x="860" d="M41 -422l711 2093h67l-710 -2093h-68z" />
<glyph unicode="0" d="M154 770q0 86 2 151.5t8.5 136.5t17.5 123.5t29 106t43.5 91t61 71t81 53.5t104.5 31.5t130 11.5q65 0 119.5 -8.5t98 -27t78.5 -42.5t61.5 -59.5t46.5 -73t33.5 -88.5t22 -100.5t13.5 -114.5t6.5 -125t1.5 -137q0 -98 -3 -171t-11 -151.5t-23.5 -134.5t-39.5 -111 t-60 -91.5t-84.5 -65t-113.5 -42t-146 -13.5q-71 0 -130 11.5t-104.5 31.5t-81 53.5t-61 71t-43.5 91.5t-29 106.5t-17.5 124t-8.5 137.5t-2 153zM219 770q0 -93 2 -157.5t8 -139t18.5 -124.5t33 -102.5t51 -85.5t72.5 -60.5t99 -39.5t128 -12q64 0 116 11t92 29t71 50 t53 66t37.5 84.5t24.5 98.5t14 115t6.5 126.5t1.5 140.5t-1.5 139.5t-6.5 125.5t-14 114.5t-24.5 97.5t-37.5 84t-53 66t-71 50t-92.5 29t-115.5 11t-115.5 -11t-92 -29t-70.5 -50t-52.5 -65.5t-36.5 -84.5t-24 -98t-13.5 -114t-6 -125.5t-1.5 -139.5z" />
<glyph unicode="1" d="M203 1403v22l426 121h22v-1489h291v-57h-666v57h306v1403z" />
<glyph unicode="2" d="M16 0v37l777 852q127 136 127 280q0 60 -10.5 106t-38.5 88t-73.5 69t-119.5 43t-174 16q-200 0 -361 -53v57q132 53 359 53q481 0 481 -379q0 -103 -45 -182.5t-150 -191.5l-686 -738h873v-57h-959z" />
<glyph unicode="3" horiz-adv-x="1095" d="M143 45v55q155 -55 320 -55q104 0 183.5 20.5t129 54t80.5 83t43 102t12 115.5q0 188 -102 268t-332 80h-135v57h135q102 0 178 28.5t118.5 77.5t62.5 105.5t20 120.5q0 60 -10.5 107.5t-38 91t-72.5 72.5t-117.5 46t-168.5 17q-128 0 -306 -53v57q65 21 153 36t153 15 q129 0 222.5 -29.5t146.5 -84t77.5 -122.5t24.5 -153q0 -61 -17.5 -118.5t-53 -108t-96 -85.5t-139.5 -44q78 -1 141 -23.5t103 -58.5t67 -85.5t38.5 -102.5t11.5 -111q0 -73 -16 -135.5t-54 -117.5t-96 -93.5t-146 -61t-200 -22.5q-192 0 -320 55z" />
<glyph unicode="4" d="M115 512v37l753 997h35v-985h232v-49h-232v-512h-61v512h-727zM193 561h649v858z" />
<glyph unicode="5" horiz-adv-x="1085" d="M131 45v61q160 -61 307 -61q498 0 498 440q0 78 -15.5 138.5t-37 99.5t-63 66.5t-75 41.5t-93 21.5t-97 8.5t-104.5 1h-267v674h787v-49h-725v-574q148 9 256 9q63 0 113 -4t104.5 -15.5t95 -31t78 -52.5t61.5 -78t38 -110t14 -146q0 -92 -19.5 -166.5t-51.5 -125 t-79.5 -88.5t-95.5 -59.5t-108 -34.5t-109.5 -17t-106.5 -4q-182 0 -305 55z" />
<glyph unicode="6" horiz-adv-x="1239" d="M141 729q0 163 14 283.5t51.5 225t100 170t161 102t234.5 36.5q218 0 363 -55v-57q-165 57 -363 57q-100 0 -178.5 -23.5t-133 -70t-92 -108.5t-58.5 -147t-30 -176.5t-9 -205.5v-103q15 100 82.5 173.5t161.5 109t200 35.5q88 0 158.5 -15t119 -39.5t84.5 -63t57 -79 t33.5 -93.5t16.5 -100t4 -106q0 -81 -10.5 -146t-41.5 -131.5t-82 -111t-137 -72.5t-202 -28q-179 0 -288 54t-156 171q-60 149 -60 514zM213 479q0 -77 10 -137t38 -118t75 -95.5t125 -60.5t184 -23q99 0 172.5 23t118 61t72 95t37.5 117.5t10 137.5q0 79 -8 138t-33.5 119 t-69 98t-119.5 62t-180 24q-102 0 -181 -29t-125.5 -74t-75.5 -106t-39.5 -116.5t-10.5 -115.5z" />
<glyph unicode="7" horiz-adv-x="952" d="M61 1487v49h830v-53l-596 -1483h-80l621 1487h-775z" />
<glyph unicode="8" d="M98 403q0 186 93 286.5t251 113.5q-288 59 -288 354q0 93 24 162.5t76.5 121.5t142.5 78.5t217 26.5q247 0 354 -99.5t107 -289.5q0 -295 -289 -354q158 -13 251 -113.5t93 -286.5q0 -201 -121 -307t-395 -106t-395 106t-121 307zM162 403q0 -64 13.5 -116t45.5 -98 t83 -77t129.5 -49t180.5 -18q127 0 217 26.5t140.5 76.5t73 112t22.5 143q0 198 -110.5 282.5t-342.5 84.5q-231 0 -341.5 -84t-110.5 -283zM217 1157q0 -159 93.5 -245.5t303.5 -86.5t304 86.5t94 245.5q0 78 -18 135.5t-61.5 104t-123 70.5t-195.5 24t-195.5 -24 t-122.5 -70.5t-61 -104t-18 -135.5z" />
<glyph unicode="9" horiz-adv-x="1239" d="M143 1057q0 81 10.5 146t41.5 131.5t82 111t137 72.5t202 28q180 0 289 -54t156 -171q33 -83 46 -205.5t13 -308.5q0 -163 -14 -283.5t-51.5 -225t-100 -170t-161 -102t-234.5 -36.5q-217 0 -362 55v57q165 -57 362 -57q120 0 208.5 35t144.5 96t89.5 156t46.5 200.5 t13 243.5v103q-15 -100 -83 -173.5t-162 -109t-200 -35.5q-88 0 -158.5 15t-119 39.5t-84.5 63t-57 79t-33.5 93.5t-16.5 100t-4 106zM207 1057q0 -79 8 -138t33 -119t69 -98t119.5 -62t179.5 -24q102 0 181 29t125.5 74t76 105.5t40 117t10.5 115.5q0 77 -10 137t-38.5 118 t-75.5 95.5t-125 60.5t-184 23q-99 0 -172.5 -23t-118 -61t-71.5 -95t-37 -117.5t-10 -137.5z" />
<glyph unicode=":" horiz-adv-x="450" d="M164 51q0 25 17.5 43.5t43.5 18.5q25 0 43.5 -18.5t18.5 -43.5q0 -26 -18.5 -43.5t-43.5 -17.5q-26 0 -43.5 17.5t-17.5 43.5zM164 768q0 25 17.5 43t43.5 18q25 0 43.5 -18t18.5 -43q0 -26 -18.5 -43.5t-43.5 -17.5q-26 0 -43.5 17.5t-17.5 43.5z" />
<glyph unicode=";" horiz-adv-x="450" d="M147 -233l52 229q-35 12 -35 55q0 27 17 44.5t44 17.5t44.5 -17.5t17.5 -44.5q0 -16 -6 -28l-119 -256h-15zM164 768q0 25 17.5 43t43.5 18q25 0 43.5 -18t18.5 -43q0 -26 -18.5 -43.5t-43.5 -17.5q-26 0 -43.5 17.5t-17.5 43.5z" />
<glyph unicode="&#x3c;" horiz-adv-x="747" d="M145 670v57l457 332v-51l-401 -310l401 -309v-51z" />
<glyph unicode="=" horiz-adv-x="1064" d="M133 524v58h799v-58h-799zM133 815v57h799v-57h-799z" />
<glyph unicode="&#x3e;" horiz-adv-x="747" d="M145 338v51l402 309l-402 310v51l457 -332v-57z" />
<glyph unicode="?" horiz-adv-x="1024" d="M92 1446v55q48 18 138.5 31.5t158.5 13.5q105 0 187 -14.5t135.5 -42.5t90 -63t55.5 -82t26.5 -92t7.5 -101q0 -67 -9.5 -119t-30.5 -90t-45.5 -64.5t-64 -49t-76 -38.5t-91.5 -37q-41 -15 -62 -24q-43 -18 -73.5 -35.5t-50 -40t-30.5 -41.5t-16.5 -52t-6.5 -58t-1 -72 h-27q-10 50 -10 86q0 100 48 165.5t167 109.5q17 6 54.5 19.5t54 20t47.5 20t46 25.5t37.5 31.5t33.5 41.5t23 51.5t16.5 66.5t4.5 82q0 77 -17.5 134t-63 106.5t-135 75.5t-222.5 26q-134 0 -299 -45zM303 51q0 25 18 43.5t44 18.5q25 0 43 -18.5t18 -43.5q0 -26 -18 -43.5 t-43 -17.5q-26 0 -44 17.5t-18 43.5z" />
<glyph unicode="@" horiz-adv-x="2129" d="M88 512q0 131 10.5 237.5t39 216t75 193t123 159t179 124t246.5 76.5t322 28q142 0 257.5 -10.5t208.5 -29.5t165 -51t125.5 -70.5t91.5 -93.5t63 -113.5t39 -137t19.5 -158t5.5 -182.5q0 -154 -15 -262.5t-52 -195.5t-101.5 -138t-161 -77.5t-233.5 -26.5h-72l-28 80 q-65 -42 -165.5 -66t-193.5 -24q-99 0 -174 26.5t-122 71.5t-76.5 113t-40.5 142.5t-11 168.5t11 168.5t40.5 142.5t76.5 113t122 71.5t174 26.5q93 0 193.5 -24t165.5 -66l28 80h27v-975q99 0 174.5 11.5t134 34t99 61.5t67.5 87.5t42.5 120t21.5 150.5t6 186 q0 88 -3.5 155t-13 136t-26.5 120t-43.5 101.5t-64 86.5t-88.5 69t-116.5 54t-148.5 37t-184.5 23t-223.5 7q-133 0 -245.5 -16t-200 -44.5t-157.5 -73t-120 -96t-87.5 -119t-60 -135.5t-36.5 -152.5t-19 -164.5t-5 -176t5 -175.5t19 -164t36.5 -153t60 -136t87.5 -118.5 t120.5 -95.5t157.5 -73.5t199.5 -45t245.5 -16q165 0 320 21t244 53l2 -66q-204 -65 -566 -65q-140 0 -258.5 17t-211 47.5t-167 77.5t-129 101.5t-95 125.5t-66 144t-41 161.5t-21.5 173.5t-6 186zM676 512q0 -76 8 -138t31.5 -125.5t62 -106.5t104.5 -70t154 -27 q214 0 353 86v762q-139 86 -353 86q-88 0 -154 -27t-104.5 -70t-62 -106.5t-31.5 -125.5t-8 -138z" />
<glyph unicode="A" horiz-adv-x="1294" d="M82 0l543 1546h45l542 -1546h-75l-154 444h-674l-151 -444h-76zM328 502h637l-318 930z" />
<glyph unicode="B" horiz-adv-x="1267" d="M174 0v1536h467q126 0 217.5 -29.5t143.5 -83t76 -121t24 -151.5q0 -142 -79.5 -240t-217.5 -110q172 0 261 -107.5t89 -279.5q0 -72 -16 -132.5t-53 -113.5t-93.5 -89.5t-141.5 -57.5t-194 -21h-483zM240 59h432q99 0 174.5 20t121 52t73.5 79.5t38.5 96t10.5 107.5 q0 190 -94 272t-320 82h-436v-709zM240 825h436q82 0 146 18.5t103.5 49t65 73.5t35.5 88t10 97q0 55 -8 99t-32 88t-64.5 73t-110 47.5t-162.5 18.5h-419v-652z" />
<glyph unicode="C" horiz-adv-x="1257" d="M143 768q0 153 18 271.5t60.5 216t110.5 160t169.5 96.5t235.5 34q230 0 377 -59v-64q-95 35 -180 49.5t-197 14.5q-281 0 -404.5 -175.5t-123.5 -543.5t123.5 -543.5t404.5 -175.5q112 0 197 14.5t180 49.5v-64q-147 -59 -377 -59q-134 0 -235.5 34t-169.5 96.5 t-110.5 160t-60.5 216t-18 271.5z" />
<glyph unicode="D" horiz-adv-x="1351" d="M174 0v1536h444q103 0 185.5 -17.5t143.5 -50t106.5 -83.5t75 -112t47.5 -142.5t25 -168t7 -194.5t-7 -194.5t-25 -168t-47.5 -142.5t-75 -112t-106.5 -83.5t-143.5 -50t-185.5 -17.5h-444zM240 59h368q127 0 219 29t152.5 83t96.5 143t50.5 197t14.5 257t-14.5 257 t-50.5 197t-96.5 143t-152.5 83t-219 29h-368v-1418z" />
<glyph unicode="E" horiz-adv-x="1169" d="M174 0v1536h852v-59h-786v-652h710v-57h-710v-709h786v-59h-852z" />
<glyph unicode="F" horiz-adv-x="1128" d="M174 0v1536h832v-59h-766v-652h690v-57h-690v-768h-66z" />
<glyph unicode="G" horiz-adv-x="1363" d="M143 768q0 153 18 271.5t60.5 216t110.5 160t169.5 96.5t235.5 34q253 0 410 -73v-64q-191 78 -410 78q-281 0 -404.5 -175.5t-123.5 -543.5t123.5 -543.5t404.5 -175.5q245 0 387 68v594h-333v57h399v-698q-190 -80 -453 -80q-134 0 -235.5 34t-169.5 96.5t-110.5 160 t-60.5 216t-18 271.5z" />
<glyph unicode="H" horiz-adv-x="1359" d="M174 0v1536h66v-711h880v711h66v-1536h-66v768h-880v-768h-66z" />
<glyph unicode="I" horiz-adv-x="503" d="M219 0v1536h66v-1536h-66z" />
<glyph unicode="J" horiz-adv-x="780" d="M92 -4v55q36 -6 109 -6q135 0 206.5 49.5t71.5 171.5v1270h66v-1266q0 -280 -344 -280q-59 0 -109 6z" />
<glyph unicode="K" horiz-adv-x="1183" d="M174 0v1536h59v-858l736 858h82l-594 -682l665 -854h-80l-622 811l-187 -215v-596h-59z" />
<glyph unicode="L" horiz-adv-x="1083" d="M174 0v1536h64v-1477h743v-59h-807z" />
<glyph unicode="M" horiz-adv-x="1597" d="M174 0v1536h43l582 -1251l581 1251h43v-1536h-67l2 1331l-529 -1120h-61l-528 1120l2 -1331h-68z" />
<glyph unicode="N" horiz-adv-x="1380" d="M174 0v1536h41l928 -1393l-4 1393h67v-1536h-41l-927 1393l4 -1393h-68z" />
<glyph unicode="O" horiz-adv-x="1409" d="M143 768q0 94 4 168t15 150t30 134t48.5 112t72 91.5t98.5 66t129.5 42.5t164.5 14q104 0 186 -19.5t140.5 -52.5t101 -87.5t68 -115.5t40.5 -145.5t19.5 -167t5 -190.5t-5 -190.5t-20 -167t-40 -145.5t-68 -115.5t-101 -87.5t-140.5 -52.5t-186 -19.5q-91 0 -164.5 14 t-129.5 42.5t-98.5 66t-72 91.5t-48.5 112t-30 134t-15 150t-4 168zM209 768q0 -107 5.5 -188.5t19 -159.5t37.5 -133.5t61.5 -102.5t89.5 -75.5t122.5 -44t160.5 -15.5t160.5 15.5t122.5 44t89 75.5t61 102.5t37.5 133.5t19 159.5t5.5 188.5t-5.5 188.5t-19 159.5 t-37.5 133.5t-61 102.5t-89 75.5t-122.5 44t-160.5 15.5t-160.5 -15.5t-122.5 -44t-89.5 -75.5t-61.5 -102.5t-37.5 -133.5t-19 -159.5t-5.5 -188.5z" />
<glyph unicode="P" horiz-adv-x="1214" d="M174 0v1536h479q469 0 469 -444q0 -443 -469 -443h-413v-649h-66zM240 707h424q98 0 171 24t114.5 60.5t66.5 90.5t33 102.5t8 107.5t-8 108t-33 102.5t-66.5 90t-114.5 60.5t-171 24h-424v-770z" />
<glyph unicode="Q" horiz-adv-x="1409" d="M143 768q0 94 4 168t15 150t30 134t48.5 112t72 91.5t98.5 66t129.5 42.5t164.5 14q104 0 186 -19.5t140.5 -52.5t101 -87.5t68 -115.5t40.5 -145.5t20 -167t5 -190.5q0 -103 -4.5 -182.5t-18 -161t-36.5 -141.5t-60.5 -114.5t-89 -89.5t-124 -58t-163.5 -29v-2l703 -162 v-72l-961 254q-80 21 -140.5 58t-100.5 91t-66 114.5t-39 144t-18 163.5t-5 187zM209 768q0 -107 5.5 -188.5t19 -159.5t37.5 -133.5t61.5 -102.5t89.5 -75.5t122.5 -44t160.5 -15.5t160.5 15.5t122.5 44t89 75.5t61 102.5t37.5 133.5t19 159.5t5.5 188.5t-5.5 188.5 t-19 159.5t-37.5 133.5t-61 102.5t-89 75.5t-122.5 44t-160.5 15.5t-160.5 -15.5t-122.5 -44t-89.5 -75.5t-61.5 -102.5t-37.5 -133.5t-19 -159.5t-5.5 -188.5z" />
<glyph unicode="R" horiz-adv-x="1255" d="M174 0v1536h483q113 0 195.5 -18.5t134.5 -51.5t83 -86t42.5 -114t11.5 -144q0 -89 -14.5 -153.5t-49.5 -118.5t-100 -86.5t-161 -46.5l385 -717h-80l-371 711q-25 -2 -76 -2h-417v-709h-66zM240 768h448q68 0 122.5 9.5t93 26t66.5 42t45 54t27 66.5t13.5 74t3.5 82 q0 65 -7.5 113t-30.5 96t-62.5 78.5t-108 49t-162.5 18.5h-448v-709z" />
<glyph unicode="S" horiz-adv-x="1226" d="M131 59v62q193 -72 412 -72q487 0 487 375q0 68 -6 113.5t-25.5 82.5t-46.5 59t-78 40.5t-111.5 29t-154.5 21.5q-81 9 -135.5 18t-109 23t-88.5 32.5t-64 45.5t-46 63.5t-25 85t-9 111.5q0 62 12.5 115.5t47 107t89 91t144 60.5t207.5 23q230 0 377 -59v-64 q-95 35 -180 49.5t-197 14.5q-127 0 -215 -26.5t-135 -75.5t-66.5 -106.5t-19.5 -131.5q0 -63 8.5 -108t31.5 -78.5t52 -54.5t83.5 -37t111 -25t147.5 -19q54 -6 90.5 -11t79.5 -12.5t71 -16t60 -21t52 -28.5t40.5 -37.5t32.5 -48t22.5 -60.5t14.5 -75t4 -91q0 -54 -10 -103 t-33 -99.5t-65 -91t-101.5 -73t-147.5 -50t-198 -17.5q-99 0 -218 20t-192 49z" />
<glyph unicode="T" horiz-adv-x="1142" d="M92 1479v57h959v-57h-447v-1479h-65v1479h-447z" />
<glyph unicode="U" horiz-adv-x="1380" d="M164 498v1038h63v-1036q0 -131 29.5 -219.5t91 -139t143.5 -71.5t199 -21t199 21t143.5 71.5t91 139t29.5 219.5v1036h64v-1038q0 -103 -19 -184.5t-55 -136t-82 -92t-108 -58t-124.5 -29t-138.5 -8.5q-65 0 -119.5 6t-109.5 21t-98 39.5t-81.5 64t-63.5 91.5 t-39.5 124.5t-14.5 161.5z" />
<glyph unicode="V" horiz-adv-x="1294" d="M82 1536h72l493 -1434l494 1434h71l-542 -1546h-45z" />
<glyph unicode="W" horiz-adv-x="1716" d="M82 1536h68l311 -1423l368 1423h58l368 -1423l312 1423h67l-352 -1546h-53l-371 1417l-371 -1417h-53z" />
<glyph unicode="X" horiz-adv-x="1243" d="M72 0l512 778l-496 758h82l451 -709l452 709h82l-498 -758l514 -778h-86l-464 729l-463 -729h-86z" />
<glyph unicode="Y" horiz-adv-x="1327" d="M82 1536h80l502 -848l501 848h80l-549 -907v-629h-65v629z" />
<glyph unicode="Z" horiz-adv-x="1261" d="M102 0v45l949 1434h-906v57h983v-45l-948 -1434h979v-57h-1057z" />
<glyph unicode="[" horiz-adv-x="532" d="M164 -422v2093h276v-59h-213v-1974h213v-60h-276z" />
<glyph unicode="\" horiz-adv-x="860" d="M41 1671h68l710 -2093h-67z" />
<glyph unicode="]" horiz-adv-x="532" d="M92 -362h213v1974h-213v59h277v-2093h-277v60z" />
<glyph unicode="^" horiz-adv-x="1105" d="M172 1024l373 512h57l373 -512h-47l-355 457l-354 -457h-47z" />
<glyph unicode="_" horiz-adv-x="655" d="M0 -455h655v-57h-655v57z" />
<glyph unicode="`" horiz-adv-x="1105" d="M279 1536h100l213 -358h-37z" />
<glyph unicode="a" horiz-adv-x="1069" d="M143 303q0 63 16.5 113t55.5 93.5t111.5 70.5t175.5 34l338 21v74q0 150 -64.5 210t-245.5 60q-174 0 -294 -43v55q123 43 294 43q92 0 159 -15t108.5 -41.5t65.5 -69t33 -90t9 -111.5v-707h-31l-28 80q-60 -43 -160.5 -66.5t-185.5 -23.5q-95 0 -166.5 25.5t-112 70 t-59.5 99t-19 118.5zM207 303q0 -258 297 -258q182 0 336 94v443l-363 -25q-270 -18 -270 -254z" />
<glyph unicode="b" horiz-adv-x="1165" d="M174 0v1536h62v-588q64 41 162 63.5t190 22.5q99 0 174 -26.5t122 -71.5t76.5 -113t40.5 -142.5t11 -168.5t-11 -168.5t-40.5 -142.5t-76.5 -113t-122 -71.5t-174 -26.5q-93 0 -193.5 24t-165.5 66l-28 -80h-27zM236 131q139 -86 352 -86q88 0 154 27t104.5 70t62 106.5 t31.5 125.5t8 138t-8 138t-31.5 125.5t-62 106.5t-104.5 70t-154 27q-213 0 -352 -86v-762z" />
<glyph unicode="c" horiz-adv-x="995" d="M154 512q0 122 19 211.5t65 162.5t131 110.5t209 37.5q159 0 284 -41v-55q-53 14 -81 20.5t-85 13.5t-118 7q-89 0 -154.5 -26t-104.5 -68t-62.5 -105t-31.5 -126t-8 -142t8 -142t31.5 -126t62.5 -105t104.5 -68t154.5 -26q61 0 118 7t85 13.5t81 20.5v-55 q-125 -41 -284 -41q-124 0 -209 37.5t-131 110.5t-65 162.5t-19 211.5z" />
<glyph unicode="d" horiz-adv-x="1165" d="M154 512q0 94 11 168.5t40.5 142.5t76.5 113t122 71.5t174 26.5q92 0 190 -22.5t162 -63.5v588h61v-1536h-26l-29 80q-65 -42 -165 -66t-193 -24q-99 0 -174 26.5t-122 71.5t-76.5 113t-40.5 142.5t-11 168.5zM217 512q0 -76 8 -138t31.5 -125.5t62.5 -106.5t105 -70 t154 -27q213 0 352 86v762q-139 86 -352 86q-88 0 -154 -27t-105 -70t-62.5 -106.5t-31.5 -125.5t-8 -138z" />
<glyph unicode="e" horiz-adv-x="1107" d="M154 512q0 122 19 211.5t65 162.5t131 110.5t209 37.5q72 0 128 -13.5t95.5 -36.5t67.5 -61t44.5 -78.5t25.5 -98t12 -110t3 -124.5v-29h-737q1 -75 10.5 -135t34 -118.5t63.5 -97.5t103.5 -63t149.5 -24q170 0 325 51v-55q-59 -23 -150 -37t-175 -14q-124 0 -209 37.5 t-131 110.5t-65 162.5t-19 211.5zM217 541h676q0 55 -2 95t-9.5 88.5t-20.5 83t-36.5 69t-56 55.5t-81 34t-109.5 13q-85 0 -149.5 -24t-103.5 -63t-63.5 -97.5t-34 -118.5t-10.5 -135z" />
<glyph unicode="f" horiz-adv-x="819" d="M82 969v24l194 33v231q0 289 357 289q87 0 127 -8v-55q-50 8 -127 8q-295 0 -295 -234v-233h350v-55h-350v-969h-62v969h-194z" />
<glyph unicode="g" horiz-adv-x="1126" d="M55 -227q0 117 75 197t185 114q-102 29 -102 131q0 88 78 141q-148 76 -148 316q0 87 18.5 150.5t61.5 112.5t120 74t189 25q65 0 130 -10h344v-25l-199 -34q115 -82 115 -293q0 -87 -18.5 -150.5t-61.5 -113t-120.5 -74.5t-189.5 -25q-104 0 -184 23q-76 -39 -76 -117 q0 -26 10 -43.5t30.5 -26.5t34.5 -12t40 -6l432 -59q134 -19 197 -82t63 -176q0 -86 -46 -151.5t-125 -104t-175 -57.5t-205 -19q-91 0 -159 7t-130 26t-100.5 51.5t-61 85.5t-22.5 125zM119 -227q0 -59 18.5 -102t50.5 -69.5t85 -42t112.5 -21t142.5 -5.5q97 0 181 15 t154.5 46.5t111.5 87t41 128.5q0 93 -48 141t-159 63l-395 54q-55 -14 -102.5 -35.5t-93 -56t-72.5 -87t-27 -116.5zM207 672q0 -54 6.5 -95t27 -82.5t55.5 -68.5t94.5 -44t141.5 -17q101 0 168.5 24t100.5 70t45 95.5t12 117.5t-12 117.5t-45 95.5t-100.5 70t-168.5 24 q-82 0 -141.5 -17t-94.5 -44t-55.5 -68.5t-27 -82.5t-6.5 -95z" />
<glyph unicode="h" horiz-adv-x="1093" d="M174 0v1536h62v-590q65 40 166.5 64t191.5 24q180 0 258 -66t78 -220v-748h-66v754q0 128 -66.5 176.5t-203.5 48.5q-222 0 -358 -84v-895h-62z" />
<glyph unicode="i" horiz-adv-x="573" d="M213 1413q0 25 17.5 43.5t43.5 18.5q25 0 43.5 -18.5t18.5 -43.5q0 -26 -18.5 -43.5t-43.5 -17.5q-26 0 -43.5 17.5t-17.5 43.5zM244 139v885h61v-881q0 -59 19.5 -81.5t74.5 -22.5v-49q-81 0 -118 36.5t-37 112.5z" />
<glyph unicode="j" horiz-adv-x="552" d="M-39 -477q127 0 205 50.5t78 162.5v1288h61v-1272q0 -274 -344 -274v45zM213 1413q0 25 17.5 43.5t43.5 18.5q25 0 43.5 -18.5t18.5 -43.5q0 -26 -18.5 -43.5t-43.5 -17.5q-26 0 -43.5 17.5t-17.5 43.5z" />
<glyph unicode="k" horiz-adv-x="1019" d="M174 0v1536h62v-1061l557 549h88l-428 -412l505 -612h-88l-456 573l-178 -170v-403h-62z" />
<glyph unicode="l" horiz-adv-x="573" d="M244 139v1397h61v-1393q0 -59 19.5 -81.5t74.5 -22.5v-49q-81 0 -118 36.5t-37 112.5z" />
<glyph unicode="m" horiz-adv-x="1636" d="M174 0v1024h31l28 -80q66 42 157 66t175 24q107 0 169 -26t91 -82q173 108 357 108q162 0 226.5 -62t64.5 -204v-768h-66v774q0 65 -12.5 106t-43 62.5t-69 29t-100.5 7.5q-182 0 -338 -100q12 -49 12 -111v-768h-65v774q0 65 -13 106t-43 62.5t-69 29t-101 7.5 q-189 0 -325 -84v-895h-66z" />
<glyph unicode="n" horiz-adv-x="1097" d="M174 0v1024h31l28 -80q65 41 169 65.5t196 24.5q180 0 258 -66t78 -220v-748h-66v754q0 128 -66.5 176.5t-203.5 48.5q-222 0 -358 -84v-895h-66z" />
<glyph unicode="o" horiz-adv-x="1150" d="M154 512q0 98 9 171t36 142t73 112.5t122 70t181 26.5t181.5 -26.5t122 -70t72.5 -112.5t36.5 -142t9.5 -171t-9.5 -171t-36.5 -142t-72.5 -112.5t-122 -70t-181.5 -26.5t-181 26.5t-122 70t-73 112.5t-36 142t-9 171zM217 512q0 -88 6 -149t27.5 -125.5t59 -103.5 t104.5 -64t161 -25q68 0 121.5 13t90.5 34t64 56t43 71.5t25 87.5t12 97.5t3 107.5t-3 107.5t-12 97.5t-25 87.5t-43 71.5t-64 56t-90.5 34t-121.5 13q-94 0 -161 -25t-104.5 -64t-59 -103.5t-27.5 -125.5t-6 -149z" />
<glyph unicode="p" horiz-adv-x="1165" d="M174 -512v1536h27l28 -80q65 42 165.5 66t193.5 24q99 0 174 -26.5t122 -71.5t76.5 -113t40.5 -142.5t11 -168.5t-11 -168.5t-40.5 -142.5t-76.5 -113t-122 -71.5t-174 -26.5q-92 0 -190 22.5t-162 63.5v-588h-62zM236 131q139 -86 352 -86q88 0 154 27t104.5 70 t62 106.5t31.5 125.5t8 138t-8 138t-31.5 125.5t-62 106.5t-104.5 70t-154 27q-213 0 -352 -86v-762z" />
<glyph unicode="q" horiz-adv-x="1165" d="M154 512q0 94 11 168.5t40.5 142.5t76.5 113t122 71.5t174 26.5q93 0 193 -24t165 -66l29 80h26v-1536h-61v588q-64 -41 -162 -63.5t-190 -22.5q-99 0 -174 26.5t-122 71.5t-76.5 113t-40.5 142.5t-11 168.5zM217 512q0 -76 8 -138t31.5 -125.5t62.5 -106.5t105 -70 t154 -27q213 0 352 86v762q-139 86 -352 86q-88 0 -154 -27t-105 -70t-62.5 -106.5t-31.5 -125.5t-8 -138z" />
<glyph unicode="r" horiz-adv-x="786" d="M174 0v1024h31l28 -80q65 41 169 65.5t196 24.5q52 0 96 -6v-55q-44 6 -96 6q-222 0 -358 -84v-895h-66z" />
<glyph unicode="s" horiz-adv-x="987" d="M143 760q0 274 371 274q160 0 285 -41v-55q-52 14 -81 20.5t-86 13.5t-118 7q-170 0 -239.5 -54.5t-69.5 -164.5q0 -106 57 -143t232 -58q205 -25 277.5 -84t72.5 -199q0 -59 -19.5 -107.5t-63.5 -90t-125 -65t-194 -23.5q-159 0 -284 41v55q53 -14 81 -20.5t85 -13.5 t118 -7q340 0 340 229q0 60 -10 95.5t-42 63.5t-87.5 43t-150.5 26q-141 17 -215.5 46.5t-104 78t-29.5 133.5z" />
<glyph unicode="t" horiz-adv-x="819" d="M82 969v24l194 33v303l62 10v-315h350v-55h-350v-721q0 -209 283 -209h24v-49h-24q-345 0 -345 274v705h-194z" />
<glyph unicode="u" horiz-adv-x="1097" d="M164 276v748h65v-754q0 -128 67 -176.5t204 -48.5q222 0 358 84v895h66v-1024h-31l-29 80q-65 -41 -168.5 -65.5t-195.5 -24.5q-180 0 -258 66t-78 220z" />
<glyph unicode="v" horiz-adv-x="1007" d="M82 1024h74l348 -926l350 926h72l-408 -1034h-29z" />
<glyph unicode="w" horiz-adv-x="1425" d="M82 1024h70l243 -928l281 928h74l280 -928l244 928h69l-288 -1034h-49l-293 954l-293 -954h-49z" />
<glyph unicode="x" horiz-adv-x="937" d="M61 0l375 528l-350 496h72l311 -451l311 451h72l-350 -496l375 -528h-74l-334 481l-334 -481h-74z" />
<glyph unicode="y" horiz-adv-x="1007" d="M82 1024h74l348 -938l350 938h72l-600 -1536h-70l219 522z" />
<glyph unicode="z" horiz-adv-x="978" d="M102 0v39l682 936h-649v49h721v-39l-684 -936h705v-49h-775z" />
<glyph unicode="{" horiz-adv-x="491" d="M53 596v57h37q68 3 97 36t26 97l-37 691q-6 99 49.5 146.5t155.5 47.5h35v-57h-35q-73 0 -106.5 -33t-30.5 -100l39 -690q3 -54 -23 -96.5t-70 -69.5q44 -26 70 -69.5t23 -96.5l-39 -690q-3 -67 30.5 -100.5t106.5 -33.5h35v-57h-35q-100 0 -155.5 48t-49.5 147l37 690 q3 67 -29.5 100t-107.5 33h-23z" />
<glyph unicode="|" horiz-adv-x="503" d="M219 -422v2093h66v-2093h-66z" />
<glyph unicode="}" horiz-adv-x="491" d="M53 -365h35q73 0 106.5 33.5t30.5 100.5l-39 690q-3 53 22 96.5t68 69.5q-44 26 -68.5 68.5t-21.5 97.5l39 690q3 67 -30.5 100t-106.5 33h-35v57h35q100 0 155.5 -47.5t49.5 -146.5l-37 -691q-3 -64 26 -97t95 -36h39v-57h-39q-66 -3 -95 -36t-26 -97l37 -690 q6 -99 -49.5 -147t-155.5 -48h-35v57z" />
<glyph unicode="~" horiz-adv-x="757" d="M72 707v61q68 -61 151 -61q34 0 64.5 14.5t54.5 34.5t49.5 40.5t62 35t78.5 14.5q99 0 154 -55v-62q-69 62 -151 62q-41 0 -79.5 -22t-64.5 -48t-70 -48t-96 -22q-97 0 -153 56z" />
<glyph unicode="&#xa1;" horiz-adv-x="450" d="M164 973q0 26 17.5 43.5t43.5 17.5q25 0 43.5 -17.5t18.5 -43.5q0 -25 -18.5 -43.5t-43.5 -18.5q-26 0 -43.5 18.5t-17.5 43.5zM180 -512l29 1106h33l28 -1106h-90z" />
<glyph unicode="&#xa2;" d="M135 768q0 125 33 219.5t103.5 163.5t187 104t278.5 35q31 0 47 -2l86 248h58l-92 -252q130 -11 247 -47v-53q-62 16 -92 23.5t-106 17.5t-152 10q-146 0 -250.5 -32.5t-166 -95.5t-89.5 -146t-28 -193t28 -193t89.5 -146t166 -95.5t250.5 -32.5q76 0 152 10t106 17.5 t92 23.5v-53q-65 -23 -160.5 -38t-185.5 -15q-81 0 -166 10l-86 -256h-57l96 264q-204 40 -296.5 168t-92.5 336z" />
<glyph unicode="&#xa3;" d="M111 0v49h176v727h-176v49h176v305q0 101 22.5 174.5t75 129.5t143.5 84t222 28q81 0 177.5 -12.5t147.5 -32.5v-57q-55 19 -144 33t-181 14q-205 0 -301.5 -85t-96.5 -273v-308h568v-49h-568v-727h768v-49h-1009z" />
<glyph unicode="&#xa4;" d="M74 594v57h184q-2 37 -2 117q0 78 2 117h-184v57h186q11 146 42.5 253t93 188t161 122t238.5 41q83 0 174 -15t137 -34v-59q-136 49 -311 49q-120 0 -206.5 -38t-139.5 -112t-81.5 -170t-39.5 -225h610l-23 -57h-591q-2 -39 -2 -117q0 -80 2 -117h512l-23 -57h-485 q11 -130 39 -226t81.5 -170t140 -111.5t206.5 -37.5q175 0 311 49v-59q-46 -19 -137 -34t-174 -15q-139 0 -238.5 41t-161 122t-93 188t-42.5 253h-186z" />
<glyph unicode="&#xa5;" d="M63 1536h80l471 -854l471 854h80l-338 -594h287v-57h-319l-131 -234h450v-57h-467v-594h-65v594h-467v57h450l-133 234h-317v57h284z" />
<glyph unicode="&#xa6;" horiz-adv-x="503" d="M219 -422v1018h66v-1018h-66zM219 653v1018h66v-1018h-66z" />
<glyph unicode="&#xa7;" horiz-adv-x="1329" d="M111 578q0 241 190 335q-57 74 -57 236q0 62 12.5 115.5t46.5 107t88.5 91t144 60.5t207.5 23q230 0 377 -59v-64q-95 35 -180 49.5t-197 14.5q-127 0 -215 -26.5t-135 -75.5t-66.5 -106.5t-19.5 -131.5q0 -63 8.5 -108t31.5 -78.5t52 -54.5t83.5 -37t111 -25t147.5 -19 q94 -11 155.5 -21.5t120.5 -29t93 -44t61 -64.5t37.5 -92.5t10.5 -127.5q0 -238 -191 -337q57 -77 57 -234q0 -62 -12.5 -115.5t-46.5 -107t-88.5 -91t-144 -60.5t-207.5 -23q-230 0 -377 59v64q95 -35 180 -49.5t197 -14.5q127 0 215 26.5t135 75.5t66.5 106.5t19.5 131.5 q0 63 -8.5 108t-31.5 78.5t-52 54.5t-83.5 37t-111 25t-147.5 19q-81 9 -135.5 18t-109 23t-88.5 32.5t-64 45.5t-46 63.5t-25 85t-9 111.5zM174 575q0 -54 7.5 -94.5t20.5 -72t39.5 -53.5t56.5 -37.5t80.5 -27.5t101 -19.5t128.5 -16.5q146 -17 234 -38.5t141 -61.5 q172 77 172 295q0 54 -7.5 94.5t-20.5 72t-39.5 53.5t-56.5 37.5t-80.5 27.5t-101 19.5t-128.5 16.5q-149 17 -235.5 37.5t-139.5 60.5q-172 -76 -172 -293z" />
<glyph unicode="&#xa8;" horiz-adv-x="1105" d="M328 1413q0 25 17.5 43.5t43.5 18.5q25 0 43.5 -18.5t18.5 -43.5q0 -26 -18.5 -43.5t-43.5 -17.5q-26 0 -43.5 17.5t-17.5 43.5zM696 1413q0 25 18 43.5t44 18.5q25 0 43 -18.5t18 -43.5q0 -26 -18 -43.5t-43 -17.5q-26 0 -44 17.5t-18 43.5z" />
<glyph unicode="&#xa9;" horiz-adv-x="1392" d="M154 512q0 95 15 171.5t40.5 130.5t64.5 93.5t82.5 63.5t100 38.5t110 19.5t119.5 5t119.5 -5t110.5 -19.5t100 -38.5t82.5 -63.5t65 -93.5t40.5 -130.5t15 -171.5t-15 -171t-40.5 -130t-65 -94t-82.5 -64t-100 -38.5t-110.5 -19.5t-119.5 -5t-119.5 5t-110 19.5 t-100 38.5t-82.5 64t-64.5 94t-40.5 130t-15 171zM217 512q0 -114 23 -197.5t62.5 -135t101 -82t128 -41.5t154.5 -11t154.5 11t128 41.5t101 82t62.5 135t23 197.5t-23 197.5t-62.5 135t-101 82t-128 41.5t-154.5 11t-154.5 -11t-128 -41.5t-101 -82t-62.5 -135t-23 -197.5 zM397 512q0 324 283 324q118 0 184 -29v-55q-74 28 -184 28q-115 0 -167 -68.5t-52 -199.5t52 -199.5t167 -68.5q110 0 184 28v-55q-66 -29 -184 -29q-283 0 -283 324z" />
<glyph unicode="&#xaa;" horiz-adv-x="819" d="M109 1001q0 119 68 170.5t202 59.5l239 18v62q0 103 -44.5 141.5t-170.5 38.5q-101 0 -229 -31v53q103 33 229 33q158 0 219.5 -58t61.5 -183v-525h-31l-24 70q-109 -80 -258 -80q-262 0 -262 231zM172 1001q0 -82 45 -129t158 -47q139 0 243 72v301l-249 -20 q-101 -7 -149 -50.5t-48 -126.5z" />
<glyph unicode="&#xab;" horiz-adv-x="1013" d="M113 489v46l389 331v-61l-326 -293l326 -293v-63zM502 489v46l389 331v-61l-326 -293l326 -293v-63z" />
<glyph unicode="&#xac;" horiz-adv-x="1351" d="M164 0v1024h1024v-1024h-1024z" />
<glyph unicode="&#xad;" horiz-adv-x="757" d="M145 670v57h467v-57h-467z" />
<glyph unicode="&#xae;" horiz-adv-x="704" d="M82 1280q0 64 14.5 112t39 77t60.5 46.5t73 24t83 6.5q59 0 103.5 -11t84.5 -38.5t61.5 -82t21.5 -134.5q0 -79 -21.5 -133.5t-61.5 -82t-84.5 -39t-103.5 -11.5q-58 0 -103 11.5t-84.5 39t-61 82t-21.5 133.5zM131 1280q0 -69 15.5 -114.5t47.5 -68t68.5 -30.5t89.5 -8 t89.5 8t68.5 30.5t47.5 68t15.5 114.5t-15.5 114.5t-47.5 68t-68.5 30.5t-89.5 8t-89.5 -8t-68.5 -30.5t-47.5 -68t-15.5 -114.5zM246 1133v294h119q54 0 76 -23t22 -67q0 -64 -47 -80l69 -124h-53l-61 118h-78v-118h-47zM293 1298h78q47 0 47 39q0 22 -9.5 33.5t-37.5 11.5 h-78v-84z" />
<glyph unicode="&#xaf;" horiz-adv-x="1232" d="M334 1434v55h561v-55h-561z" />
<glyph unicode="&#xb0;" horiz-adv-x="749" d="M102 1280q0 75 23.5 129t64 83t86 41.5t99.5 12.5t99.5 -12.5t86 -41.5t63.5 -83t23 -129q0 -74 -23 -128t-63.5 -83t-86 -42t-99.5 -13t-99.5 13t-86 42t-64 83t-23.5 128zM166 1280q0 -113 52.5 -162t156.5 -49t156.5 49t52.5 162t-52.5 162t-156.5 49t-156.5 -49 t-52.5 -162z" />
<glyph unicode="&#xb1;" horiz-adv-x="1064" d="M133 184v58h799v-58h-799zM133 670v57h371v371h57v-371h371v-57h-371v-371h-57v371h-371z" />
<glyph unicode="&#xb4;" horiz-adv-x="1105" d="M555 1178l213 358h100l-276 -358h-37z" />
<glyph unicode="&#xb5;" horiz-adv-x="1097" d="M164 -512v1536h65v-754q0 -128 67 -176.5t204 -48.5q222 0 358 84v895h66v-1024h-31l-29 80q-65 -41 -168.5 -65.5t-195.5 -24.5q-196 0 -271 78v-580h-65z" />
<glyph unicode="&#xb6;" horiz-adv-x="1214" d="M176 1092q0 444 469 444h479v-1536h-65v649h-197v-649h-65v649h-152q-469 0 -469 443zM242 1092q0 -59 8 -107.5t33 -102.5t66.5 -90.5t114.5 -60.5t171 -24h162v770h-162q-98 0 -171 -24t-114.5 -60.5t-66.5 -90t-33 -102.5t-8 -108zM862 707h197v770h-197v-770z" />
<glyph unicode="&#xb7;" horiz-adv-x="450" d="M164 768q0 25 17.5 43t43.5 18q25 0 43.5 -18t18.5 -43q0 -26 -18.5 -43.5t-43.5 -17.5q-26 0 -43.5 17.5t-17.5 43.5z" />
<glyph unicode="&#xb8;" horiz-adv-x="1232" d="M502 -379q24 18 44 39t36 47t10 50.5t-37 41.5q-117 62 -2 201h45q-2 -2 -12 -14t-13 -16t-11.5 -15.5t-11 -16.5t-7.5 -16t-5 -17t0.5 -16t5 -17t12.5 -15t19 -15q48 -25 66 -58.5t8.5 -65t-28.5 -57t-43 -40.5h-76z" />
<glyph unicode="&#xba;" horiz-adv-x="960" d="M137 1157q0 210 78.5 299.5t257.5 89.5t257.5 -89.5t78.5 -299.5t-78.5 -299.5t-257.5 -89.5t-257.5 89.5t-78.5 299.5zM201 1157q0 -185 62.5 -259.5t209.5 -74.5t209.5 74.5t62.5 259.5t-62.5 259.5t-209.5 74.5t-209.5 -74.5t-62.5 -259.5z" />
<glyph unicode="&#xbb;" horiz-adv-x="1013" d="M123 156v63l326 293l-326 293v61l389 -331v-46zM512 156v63l326 293l-326 293v61l389 -331v-46z" />
<glyph unicode="&#xbf;" horiz-adv-x="1024" d="M92 -127q0 67 9.5 119t30.5 90t45.5 64.5t64 49t76 38.5t91.5 37q41 15 62 24q43 18 73.5 35.5t50 40t30.5 41.5t16.5 52t6.5 58t1 72h27q10 -50 10 -86q0 -100 -48 -165.5t-167 -109.5q-17 -6 -54.5 -19.5t-54 -20t-47.5 -20t-46 -25.5t-37.5 -31.5t-33.5 -41.5 t-23 -51.5t-16.5 -66.5t-4.5 -82q0 -77 17.5 -134t63 -106.5t135 -75.5t222.5 -26q134 0 299 45v-55q-48 -18 -138.5 -31.5t-158.5 -13.5q-105 0 -187 14.5t-135.5 42.5t-90 63t-55.5 82t-26.5 92t-7.5 101zM557 973q0 26 18 43.5t43 17.5q26 0 44 -17.5t18 -43.5 q0 -25 -18 -43.5t-44 -18.5q-25 0 -43 18.5t-18 43.5z" />
<glyph unicode="&#xc0;" horiz-adv-x="1294" d="M82 0l543 1546h45l542 -1546h-75l-154 444h-674l-151 -444h-76zM328 502h637l-318 930zM352 2068h101l213 -358h-37z" />
<glyph unicode="&#xc1;" horiz-adv-x="1294" d="M82 0l543 1546h45l542 -1546h-75l-154 444h-674l-151 -444h-76zM328 502h637l-318 930zM629 1710l213 358h100l-276 -358h-37z" />
<glyph unicode="&#xc2;" horiz-adv-x="1294" d="M82 0l543 1546h45l542 -1546h-75l-154 444h-674l-151 -444h-76zM309 1710l297 358h82l297 -358h-49l-289 295l-289 -295h-49zM328 502h637l-318 930z" />
<glyph unicode="&#xc3;" horiz-adv-x="1294" d="M82 0l543 1546h45l542 -1546h-75l-154 444h-674l-151 -444h-76zM324 1782q6 89 52.5 136.5t125.5 47.5q49 0 90 -22.5t65 -49t59.5 -49t74.5 -22.5q116 0 122 133h58q-6 -89 -52.5 -136.5t-125.5 -47.5q-49 0 -90 22.5t-65 49t-59.5 49t-74.5 22.5q-117 0 -123 -133h-57z M328 502h637l-318 930z" />
<glyph unicode="&#xc4;" horiz-adv-x="1294" d="M82 0l543 1546h45l542 -1546h-75l-154 444h-674l-151 -444h-76zM328 502h637l-318 930zM401 1925q0 25 18 43.5t44 18.5q25 0 43 -18.5t18 -43.5q0 -26 -18 -43.5t-43 -17.5q-26 0 -44 17.5t-18 43.5zM770 1925q0 25 17.5 43.5t43.5 18.5q25 0 43.5 -18.5t18.5 -43.5 q0 -26 -18.5 -43.5t-43.5 -17.5q-26 0 -43.5 17.5t-17.5 43.5z" />
<glyph unicode="&#xc5;" horiz-adv-x="1294" d="M82 0l543 1546h45l542 -1546h-75l-154 444h-674l-151 -444h-76zM328 502h637l-318 930zM455 1868q0 190 192 190q90 0 140.5 -46t50.5 -144q0 -96 -50.5 -142.5t-140.5 -46.5q-91 0 -141.5 46t-50.5 143zM504 1868q0 -142 143 -142q139 0 139 142q0 141 -139 141 q-143 0 -143 -141z" />
<glyph unicode="&#xc6;" horiz-adv-x="2095" d="M82 0l1008 1536h862v-59h-787v-652h711v-57h-711v-709h787v-59h-852v768h-443l-493 -768h-82zM694 825h406v631z" />
<glyph unicode="&#xc7;" horiz-adv-x="1257" d="M143 768q0 153 18 271.5t60.5 216t110.5 160t169.5 96.5t235.5 34q230 0 377 -59v-64q-95 35 -180 49.5t-197 14.5q-281 0 -404.5 -175.5t-123.5 -543.5t123.5 -543.5t404.5 -175.5q112 0 197 14.5t180 49.5v-64q-137 -56 -360 -59q-21 -24 -30 -37t-19 -35t-1 -40.5 t35 -35.5q48 -25 66 -58.5t8 -65t-29 -57t-43 -40.5h-75q24 18 44 39t36 47t10 50.5t-37 41.5q-115 61 -10 193q-159 4 -269.5 56.5t-175 154.5t-93 239.5t-28.5 325.5z" />
<glyph unicode="&#xc8;" horiz-adv-x="1169" d="M174 0v1536h852v-59h-786v-652h710v-57h-710v-709h786v-59h-852zM305 2068h101l212 -358h-36z" />
<glyph unicode="&#xc9;" horiz-adv-x="1169" d="M174 0v1536h852v-59h-786v-652h710v-57h-710v-709h786v-59h-852zM582 1710l213 358h100l-277 -358h-36z" />
<glyph unicode="&#xca;" horiz-adv-x="1169" d="M174 0v1536h852v-59h-786v-652h710v-57h-710v-709h786v-59h-852zM262 1710l297 358h82l297 -358h-49l-289 295l-289 -295h-49z" />
<glyph unicode="&#xcb;" horiz-adv-x="1169" d="M174 0v1536h852v-59h-786v-652h710v-57h-710v-709h786v-59h-852zM354 1925q0 25 18 43.5t44 18.5q25 0 43 -18.5t18 -43.5q0 -26 -18 -43.5t-43 -17.5q-26 0 -44 17.5t-18 43.5zM723 1925q0 25 17.5 43.5t43.5 18.5q25 0 43.5 -18.5t18.5 -43.5q0 -26 -18.5 -43.5 t-43.5 -17.5q-26 0 -43.5 17.5t-17.5 43.5z" />
<glyph unicode="&#xcc;" horiz-adv-x="503" d="M-43 2068h100l213 -358h-37zM219 0v1536h66v-1536h-66z" />
<glyph unicode="&#xcd;" horiz-adv-x="503" d="M219 0v1536h66v-1536h-66zM233 1710l213 358h101l-277 -358h-37z" />
<glyph unicode="&#xce;" horiz-adv-x="503" d="M-86 1690l297 358h82l297 -358h-49l-289 295l-289 -295h-49zM219 0v1536h66v-1536h-66z" />
<glyph unicode="&#xcf;" horiz-adv-x="503" d="M6 1925q0 25 18 43.5t44 18.5q25 0 43 -18.5t18 -43.5q0 -26 -18 -43.5t-43 -17.5q-26 0 -44 17.5t-18 43.5zM219 0v1536h66v-1536h-66zM375 1925q0 25 17.5 43.5t43.5 18.5q25 0 43.5 -18.5t18.5 -43.5q0 -26 -18.5 -43.5t-43.5 -17.5q-26 0 -43.5 17.5t-17.5 43.5z" />
<glyph unicode="&#xd0;" horiz-adv-x="1433" d="M72 741v58h184v737h444q103 0 185.5 -17.5t143.5 -50t106.5 -83.5t75 -112t47.5 -142.5t25 -168t7 -194.5t-7 -194.5t-25 -168t-47.5 -142.5t-75 -112t-106.5 -83.5t-143.5 -50t-185.5 -17.5h-444v741h-184zM322 59h368q127 0 219 29t152.5 83t96.5 143t50.5 197 t14.5 257t-14.5 257t-50.5 197t-96.5 143t-152.5 83t-219 29h-368v-678h366v-58h-366v-682z" />
<glyph unicode="&#xd1;" horiz-adv-x="1380" d="M174 0v1536h41l928 -1393l-4 1393h67v-1536h-41l-927 1393l4 -1393h-68zM367 1782q6 89 52.5 136.5t125.5 47.5q49 0 90 -22.5t65 -49t59.5 -49t74.5 -22.5q116 0 122 133h58q-6 -89 -52.5 -136.5t-125.5 -47.5q-49 0 -90 22.5t-65 49t-59.5 49t-74.5 22.5 q-117 0 -123 -133h-57z" />
<glyph unicode="&#xd2;" horiz-adv-x="1409" d="M143 768q0 94 4 168t15 150t30 134t48.5 112t72 91.5t98.5 66t129.5 42.5t164.5 14q104 0 186 -19.5t140.5 -52.5t101 -87.5t68 -115.5t40.5 -145.5t20 -167t5 -190.5t-5 -190.5t-20 -167t-40.5 -145.5t-68 -115.5t-101 -87.5t-140.5 -52.5t-186 -19.5q-91 0 -164.5 14 t-129.5 42.5t-98.5 66t-72 91.5t-48.5 112t-30 134t-15 150t-4 168zM209 768q0 -107 5.5 -188.5t19 -159.5t37.5 -133.5t61.5 -102.5t89.5 -75.5t122.5 -44t160.5 -15.5t160.5 15.5t122.5 44t89 75.5t61 102.5t37.5 133.5t19 159.5t5.5 188.5t-5.5 188.5t-19 159.5 t-37.5 133.5t-61 102.5t-89 75.5t-122.5 44t-160.5 15.5t-160.5 -15.5t-122.5 -44t-89.5 -75.5t-61.5 -102.5t-37.5 -133.5t-19 -159.5t-5.5 -188.5zM410 2068h100l213 -358h-37z" />
<glyph unicode="&#xd3;" horiz-adv-x="1409" d="M143 768q0 94 4 168t15 150t30 134t48.5 112t72 91.5t98.5 66t129.5 42.5t164.5 14q104 0 186 -19.5t140.5 -52.5t101 -87.5t68 -115.5t40.5 -145.5t20 -167t5 -190.5t-5 -190.5t-20 -167t-40.5 -145.5t-68 -115.5t-101 -87.5t-140.5 -52.5t-186 -19.5q-91 0 -164.5 14 t-129.5 42.5t-98.5 66t-72 91.5t-48.5 112t-30 134t-15 150t-4 168zM209 768q0 -107 5.5 -188.5t19 -159.5t37.5 -133.5t61.5 -102.5t89.5 -75.5t122.5 -44t160.5 -15.5t160.5 15.5t122.5 44t89 75.5t61 102.5t37.5 133.5t19 159.5t5.5 188.5t-5.5 188.5t-19 159.5 t-37.5 133.5t-61 102.5t-89 75.5t-122.5 44t-160.5 15.5t-160.5 -15.5t-122.5 -44t-89.5 -75.5t-61.5 -102.5t-37.5 -133.5t-19 -159.5t-5.5 -188.5zM686 1710l213 358h100l-276 -358h-37z" />
<glyph unicode="&#xd4;" horiz-adv-x="1409" d="M143 768q0 94 4 168t15 150t30 134t48.5 112t72 91.5t98.5 66t129.5 42.5t164.5 14q104 0 186 -19.5t140.5 -52.5t101 -87.5t68 -115.5t40.5 -145.5t20 -167t5 -190.5t-5 -190.5t-20 -167t-40.5 -145.5t-68 -115.5t-101 -87.5t-140.5 -52.5t-186 -19.5q-91 0 -164.5 14 t-129.5 42.5t-98.5 66t-72 91.5t-48.5 112t-30 134t-15 150t-4 168zM209 768q0 -107 5.5 -188.5t19 -159.5t37.5 -133.5t61.5 -102.5t89.5 -75.5t122.5 -44t160.5 -15.5t160.5 15.5t122.5 44t89 75.5t61 102.5t37.5 133.5t19 159.5t5.5 188.5t-5.5 188.5t-19 159.5 t-37.5 133.5t-61 102.5t-89 75.5t-122.5 44t-160.5 15.5t-160.5 -15.5t-122.5 -44t-89.5 -75.5t-61.5 -102.5t-37.5 -133.5t-19 -159.5t-5.5 -188.5zM367 1710l297 358h81l297 -358h-49l-288 295l-289 -295h-49z" />
<glyph unicode="&#xd5;" horiz-adv-x="1409" d="M143 768q0 94 4 168t15 150t30 134t48.5 112t72 91.5t98.5 66t129.5 42.5t164.5 14q104 0 186 -19.5t140.5 -52.5t101 -87.5t68 -115.5t40.5 -145.5t20 -167t5 -190.5t-5 -190.5t-20 -167t-40.5 -145.5t-68 -115.5t-101 -87.5t-140.5 -52.5t-186 -19.5q-91 0 -164.5 14 t-129.5 42.5t-98.5 66t-72 91.5t-48.5 112t-30 134t-15 150t-4 168zM209 768q0 -107 5.5 -188.5t19 -159.5t37.5 -133.5t61.5 -102.5t89.5 -75.5t122.5 -44t160.5 -15.5t160.5 15.5t122.5 44t89 75.5t61 102.5t37.5 133.5t19 159.5t5.5 188.5t-5.5 188.5t-19 159.5 t-37.5 133.5t-61 102.5t-89 75.5t-122.5 44t-160.5 15.5t-160.5 -15.5t-122.5 -44t-89.5 -75.5t-61.5 -102.5t-37.5 -133.5t-19 -159.5t-5.5 -188.5zM381 1782q6 89 52.5 136.5t125.5 47.5q49 0 90 -22.5t65 -49t59.5 -49t74.5 -22.5q117 0 123 133h57q-6 -89 -52.5 -136.5 t-125.5 -47.5q-49 0 -90 22.5t-65 49t-59.5 49t-74.5 22.5q-117 0 -123 -133h-57z" />
<glyph unicode="&#xd6;" horiz-adv-x="1409" d="M143 768q0 94 4 168t15 150t30 134t48.5 112t72 91.5t98.5 66t129.5 42.5t164.5 14q104 0 186 -19.5t140.5 -52.5t101 -87.5t68 -115.5t40.5 -145.5t20 -167t5 -190.5t-5 -190.5t-20 -167t-40.5 -145.5t-68 -115.5t-101 -87.5t-140.5 -52.5t-186 -19.5q-91 0 -164.5 14 t-129.5 42.5t-98.5 66t-72 91.5t-48.5 112t-30 134t-15 150t-4 168zM209 768q0 -107 5.5 -188.5t19 -159.5t37.5 -133.5t61.5 -102.5t89.5 -75.5t122.5 -44t160.5 -15.5t160.5 15.5t122.5 44t89 75.5t61 102.5t37.5 133.5t19 159.5t5.5 188.5t-5.5 188.5t-19 159.5 t-37.5 133.5t-61 102.5t-89 75.5t-122.5 44t-160.5 15.5t-160.5 -15.5t-122.5 -44t-89.5 -75.5t-61.5 -102.5t-37.5 -133.5t-19 -159.5t-5.5 -188.5zM459 1925q0 25 17.5 43.5t43.5 18.5q25 0 43.5 -18.5t18.5 -43.5q0 -26 -18.5 -43.5t-43.5 -17.5q-26 0 -43.5 17.5 t-17.5 43.5zM827 1925q0 25 18 43.5t44 18.5q25 0 43 -18.5t18 -43.5q0 -26 -18 -43.5t-43 -17.5q-26 0 -44 17.5t-18 43.5z" />
<glyph unicode="&#xd7;" horiz-adv-x="1064" d="M229 436l263 262l-263 263l41 40l262 -262l263 262l41 -40l-263 -263l263 -262l-41 -41l-263 262l-262 -262z" />
<glyph unicode="&#xd8;" horiz-adv-x="1409" d="M143 768q0 94 4 168t15 150t30 134t48.5 112t72 91.5t98.5 66t129.5 42.5t164.5 14q233 0 366 -100l53 90h74l-80 -135q86 -94 117 -247.5t31 -385.5q0 -108 -5 -190.5t-20 -167t-40.5 -145.5t-68 -115.5t-101 -87.5t-140.5 -52.5t-186 -19.5q-234 0 -365 98l-51 -88h-74 l78 131q-87 94 -118.5 248.5t-31.5 388.5zM209 768q0 -215 25.5 -354.5t93.5 -223.5l710 1201q-116 96 -333 96q-90 0 -160.5 -15.5t-122.5 -44t-89.5 -75.5t-61.5 -102.5t-37.5 -133.5t-19 -159.5t-5.5 -188.5zM373 143q113 -94 332 -94q90 0 160.5 15.5t122.5 44t89 75.5 t61 102.5t37.5 133.5t19 159.5t5.5 188.5q0 213 -25 351t-92 224z" />
<glyph unicode="&#xd9;" horiz-adv-x="1380" d="M164 498v1038h63v-1036q0 -131 29.5 -219.5t91 -139t143.5 -71.5t199 -21t199 21t143.5 71.5t91 139t29.5 219.5v1036h64v-1038q0 -103 -19 -184.5t-55 -136t-82 -92t-108 -58t-124.5 -29t-138.5 -8.5q-65 0 -119.5 6t-109.5 21t-98 39.5t-81.5 64t-63.5 91.5 t-39.5 124.5t-14.5 161.5zM395 2068h101l213 -358h-37z" />
<glyph unicode="&#xda;" horiz-adv-x="1380" d="M164 498v1038h63v-1036q0 -131 29.5 -219.5t91 -139t143.5 -71.5t199 -21t199 21t143.5 71.5t91 139t29.5 219.5v1036h64v-1038q0 -103 -19 -184.5t-55 -136t-82 -92t-108 -58t-124.5 -29t-138.5 -8.5q-65 0 -119.5 6t-109.5 21t-98 39.5t-81.5 64t-63.5 91.5 t-39.5 124.5t-14.5 161.5zM672 1710l213 358h100l-276 -358h-37z" />
<glyph unicode="&#xdb;" horiz-adv-x="1380" d="M164 498v1038h63v-1036q0 -131 29.5 -219.5t91 -139t143.5 -71.5t199 -21t199 21t143.5 71.5t91 139t29.5 219.5v1036h64v-1038q0 -103 -19 -184.5t-55 -136t-82 -92t-108 -58t-124.5 -29t-138.5 -8.5q-65 0 -119.5 6t-109.5 21t-98 39.5t-81.5 64t-63.5 91.5 t-39.5 124.5t-14.5 161.5zM352 1690l297 358h82l297 -358h-49l-289 295l-289 -295h-49z" />
<glyph unicode="&#xdc;" horiz-adv-x="1380" d="M164 498v1038h63v-1036q0 -131 29.5 -219.5t91 -139t143.5 -71.5t199 -21t199 21t143.5 71.5t91 139t29.5 219.5v1036h64v-1038q0 -103 -19 -184.5t-55 -136t-82 -92t-108 -58t-124.5 -29t-138.5 -8.5q-65 0 -119.5 6t-109.5 21t-98 39.5t-81.5 64t-63.5 91.5 t-39.5 124.5t-14.5 161.5zM444 1925q0 25 18 43.5t44 18.5q25 0 43 -18.5t18 -43.5q0 -26 -18 -43.5t-43 -17.5q-26 0 -44 17.5t-18 43.5zM813 1925q0 25 17.5 43.5t43.5 18.5q25 0 43.5 -18.5t18.5 -43.5q0 -26 -18.5 -43.5t-43.5 -17.5q-26 0 -43.5 17.5t-17.5 43.5z" />
<glyph unicode="&#xdd;" horiz-adv-x="1327" d="M82 1536h80l502 -848l501 848h80l-549 -907v-629h-65v629zM645 1710l213 358h100l-276 -358h-37z" />
<glyph unicode="&#xde;" horiz-adv-x="1214" d="M174 0v1536h66v-324h413q469 0 469 -444q0 -442 -469 -442h-413v-326h-66zM240 383h424q98 0 171 24t114.5 60.5t66.5 90.5t33 102.5t8 107.5t-8 108t-33 102.5t-66.5 90t-114.5 60.5t-171 24h-424v-770z" />
<glyph unicode="&#xdf;" horiz-adv-x="1392" d="M203 0v1233q-2 146 108.5 229.5t335.5 83.5q224 0 334.5 -86t110.5 -233q0 -120 -53 -185t-195 -90q-28 -5 -37.5 -7t-33.5 -7t-33.5 -8.5l-28.5 -10.5t-26.5 -14t-21 -17.5t-19 -22.5t-12 -28t-9 -35t-2.5 -42q0 -107 57 -143.5t231 -57.5q205 -25 278 -84t73 -199 q0 -59 -19.5 -107.5t-63.5 -90t-125 -65t-194 -23.5q-160 0 -285 41v55q52 -14 81 -20.5t86 -13.5t118 -7q340 0 340 229q0 60 -10.5 95.5t-42.5 63.5t-87.5 43t-150.5 26q-141 17 -215.5 46.5t-103.5 78t-29 133.5q0 116 58.5 169t213.5 79q66 11 108 32t61 53t24.5 61 t5.5 73q0 123 -96.5 194.5t-286.5 71.5q-192 0 -287.5 -68t-95.5 -190v-1235h-61z" />
<glyph unicode="&#xe0;" horiz-adv-x="1069" d="M143 303q0 63 16.5 113t55.5 93.5t111.5 70.5t175.5 34l338 21v74q0 150 -64.5 210t-245.5 60q-174 0 -294 -43v55q123 43 294 43q92 0 159 -15t108.5 -41.5t65.5 -69t33 -90t9 -111.5v-707h-31l-28 80q-60 -43 -160.5 -66.5t-185.5 -23.5q-95 0 -166.5 25.5t-112 70 t-59.5 99t-19 118.5zM207 303q0 -258 297 -258q182 0 336 94v443l-363 -25q-270 -18 -270 -254zM236 1536h100l213 -358h-37z" />
<glyph unicode="&#xe1;" horiz-adv-x="1069" d="M143 303q0 63 16.5 113t55.5 93.5t111.5 70.5t175.5 34l338 21v74q0 150 -64.5 210t-245.5 60q-174 0 -294 -43v55q123 43 294 43q92 0 159 -15t108.5 -41.5t65.5 -69t33 -90t9 -111.5v-707h-31l-28 80q-60 -43 -160.5 -66.5t-185.5 -23.5q-95 0 -166.5 25.5t-112 70 t-59.5 99t-19 118.5zM207 303q0 -258 297 -258q182 0 336 94v443l-363 -25q-270 -18 -270 -254zM512 1178l213 358h100l-276 -358h-37z" />
<glyph unicode="&#xe2;" horiz-adv-x="1069" d="M143 303q0 63 16.5 113t55.5 93.5t111.5 70.5t175.5 34l338 21v74q0 150 -64.5 210t-245.5 60q-174 0 -294 -43v55q123 43 294 43q92 0 159 -15t108.5 -41.5t65.5 -69t33 -90t9 -111.5v-707h-31l-28 80q-60 -43 -160.5 -66.5t-185.5 -23.5q-95 0 -166.5 25.5t-112 70 t-59.5 99t-19 118.5zM193 1178l296 358h82l297 -358h-49l-289 295l-288 -295h-49zM207 303q0 -258 297 -258q182 0 336 94v443l-363 -25q-270 -18 -270 -254z" />
<glyph unicode="&#xe3;" horiz-adv-x="1069" d="M143 303q0 63 16.5 113t55.5 93.5t111.5 70.5t175.5 34l338 21v74q0 150 -64.5 210t-245.5 60q-174 0 -294 -43v55q123 43 294 43q92 0 159 -15t108.5 -41.5t65.5 -69t33 -90t9 -111.5v-707h-31l-28 80q-60 -43 -160.5 -66.5t-185.5 -23.5q-95 0 -166.5 25.5t-112 70 t-59.5 99t-19 118.5zM207 303q0 -258 297 -258q182 0 336 94v443l-363 -25q-270 -18 -270 -254zM217 1270q6 89 52.5 136.5t125.5 47.5q49 0 90 -22.5t65 -49t59.5 -49t74.5 -22.5q117 0 123 133h57q-6 -89 -52.5 -136.5t-125.5 -47.5q-49 0 -90 22.5t-65 49t-59.5 49 t-74.5 22.5q-117 0 -123 -133h-57z" />
<glyph unicode="&#xe4;" horiz-adv-x="1069" d="M143 303q0 63 16.5 113t55.5 93.5t111.5 70.5t175.5 34l338 21v74q0 150 -64.5 210t-245.5 60q-174 0 -294 -43v55q123 43 294 43q92 0 159 -15t108.5 -41.5t65.5 -69t33 -90t9 -111.5v-707h-31l-28 80q-60 -43 -160.5 -66.5t-185.5 -23.5q-95 0 -166.5 25.5t-112 70 t-59.5 99t-19 118.5zM207 303q0 -258 297 -258q182 0 336 94v443l-363 -25q-270 -18 -270 -254zM285 1413q0 25 17.5 43.5t43.5 18.5q25 0 43.5 -18.5t18.5 -43.5q0 -26 -18.5 -43.5t-43.5 -17.5q-26 0 -43.5 17.5t-17.5 43.5zM653 1413q0 25 18 43.5t44 18.5q25 0 43 -18.5 t18 -43.5q0 -26 -18 -43.5t-43 -17.5q-26 0 -44 17.5t-18 43.5z" />
<glyph unicode="&#xe5;" horiz-adv-x="1069" d="M143 303q0 63 16.5 113t55.5 93.5t111.5 70.5t175.5 34l338 21v74q0 150 -64.5 210t-245.5 60q-174 0 -294 -43v55q123 43 294 43q92 0 159 -15t108.5 -41.5t65.5 -69t33 -90t9 -111.5v-707h-31l-28 80q-60 -43 -160.5 -66.5t-185.5 -23.5q-95 0 -166.5 25.5t-112 70 t-59.5 99t-19 118.5zM207 303q0 -258 297 -258q182 0 336 94v443l-363 -25q-270 -18 -270 -254zM338 1356q0 190 192 190q90 0 140.5 -46t50.5 -144q0 -96 -50.5 -142.5t-140.5 -46.5q-91 0 -141.5 46t-50.5 143zM387 1356q0 -142 143 -142q140 0 140 142q0 141 -140 141 q-143 0 -143 -141z" />
<glyph unicode="&#xe6;" horiz-adv-x="1775" d="M125 283q0 129 86.5 193.5t292.5 64.5h317v168q0 76 -13.5 124.5t-48 82.5t-94.5 48.5t-153 14.5q-175 0 -295 -43v55q123 43 295 43q118 0 194.5 -25t114 -68t53.5 -110q91 203 371 203q72 0 128 -13.5t95.5 -36.5t67.5 -61t44.5 -78.5t26 -98t12.5 -110.5t3 -124v-29 h-737q1 -75 10.5 -135t34 -118.5t63.5 -97.5t103 -63t149 -24q171 0 326 51v-55q-59 -23 -150 -37t-176 -14q-241 0 -340 147q-25 -22 -78 -57q-63 -41 -163.5 -65.5t-182.5 -24.5q-96 0 -166.5 22.5t-111 63t-59.5 92t-19 115.5zM188 283q0 -50 12 -89t42 -74.5t91.5 -55 t151.5 -19.5q182 0 336 94q29 16 56 47q-53 108 -56 297h-342q-153 0 -222 -48.5t-69 -151.5zM885 541h676q0 55 -2 95t-9.5 88.5t-20.5 83t-36.5 69t-56.5 55.5t-81.5 34t-109.5 13q-85 0 -149 -24t-103 -63t-63.5 -97.5t-34 -118.5t-10.5 -135z" />
<glyph unicode="&#xe7;" horiz-adv-x="1015" d="M154 512q0 122 19 211.5t65 162.5t131 110.5t209 37.5q159 0 284 -41v-55q-53 14 -81 20.5t-85 13.5t-118 7q-89 0 -154.5 -26t-104.5 -68t-62.5 -105t-31.5 -126t-8 -142t8 -142t31.5 -126t62.5 -105t104.5 -68t154.5 -26q61 0 118 7t85 13.5t81 20.5v-55 q-117 -37 -268 -41q-20 -23 -29.5 -36.5t-19 -35.5t-0.5 -40.5t35 -35.5q48 -25 66 -58.5t8 -65t-29 -57t-43 -40.5h-76q24 18 44 39t36 47t10 50.5t-37 41.5q-114 60 -10 191q-115 4 -194 43.5t-122 112t-61 160.5t-18 206z" />
<glyph unicode="&#xe8;" horiz-adv-x="1107" d="M154 512q0 122 19 211.5t65 162.5t131 110.5t209 37.5q72 0 128 -13.5t95.5 -36.5t67.5 -61t44.5 -78.5t25.5 -98t12 -110t3 -124.5v-29h-737q1 -75 10.5 -135t34 -118.5t63.5 -97.5t103.5 -63t149.5 -24q170 0 325 51v-55q-59 -23 -150 -37t-175 -14q-124 0 -209 37.5 t-131 110.5t-65 162.5t-19 211.5zM217 541h676q0 55 -2 95t-9.5 88.5t-20.5 83t-36.5 69t-56 55.5t-81 34t-109.5 13q-85 0 -149.5 -24t-103.5 -63t-63.5 -97.5t-34 -118.5t-10.5 -135zM283 1536h100l213 -358h-37z" />
<glyph unicode="&#xe9;" horiz-adv-x="1107" d="M154 512q0 122 19 211.5t65 162.5t131 110.5t209 37.5q72 0 128 -13.5t95.5 -36.5t67.5 -61t44.5 -78.5t25.5 -98t12 -110t3 -124.5v-29h-737q1 -75 10.5 -135t34 -118.5t63.5 -97.5t103.5 -63t149.5 -24q170 0 325 51v-55q-59 -23 -150 -37t-175 -14q-124 0 -209 37.5 t-131 110.5t-65 162.5t-19 211.5zM217 541h676q0 55 -2 95t-9.5 88.5t-20.5 83t-36.5 69t-56 55.5t-81 34t-109.5 13q-85 0 -149.5 -24t-103.5 -63t-63.5 -97.5t-34 -118.5t-10.5 -135zM559 1178l213 358h100l-276 -358h-37z" />
<glyph unicode="&#xea;" horiz-adv-x="1107" d="M154 512q0 122 19 211.5t65 162.5t131 110.5t209 37.5q72 0 128 -13.5t95.5 -36.5t67.5 -61t44.5 -78.5t25.5 -98t12 -110t3 -124.5v-29h-737q1 -75 10.5 -135t34 -118.5t63.5 -97.5t103.5 -63t149.5 -24q170 0 325 51v-55q-59 -23 -150 -37t-175 -14q-124 0 -209 37.5 t-131 110.5t-65 162.5t-19 211.5zM217 541h676q0 55 -2 95t-9.5 88.5t-20.5 83t-36.5 69t-56 55.5t-81 34t-109.5 13q-85 0 -149.5 -24t-103.5 -63t-63.5 -97.5t-34 -118.5t-10.5 -135zM240 1178l297 358h81l297 -358h-49l-288 295l-289 -295h-49z" />
<glyph unicode="&#xeb;" horiz-adv-x="1107" d="M154 512q0 122 19 211.5t65 162.5t131 110.5t209 37.5q72 0 128 -13.5t95.5 -36.5t67.5 -61t44.5 -78.5t25.5 -98t12 -110t3 -124.5v-29h-737q1 -75 10.5 -135t34 -118.5t63.5 -97.5t103.5 -63t149.5 -24q170 0 325 51v-55q-59 -23 -150 -37t-175 -14q-124 0 -209 37.5 t-131 110.5t-65 162.5t-19 211.5zM217 541h676q0 55 -2 95t-9.5 88.5t-20.5 83t-36.5 69t-56 55.5t-81 34t-109.5 13q-85 0 -149.5 -24t-103.5 -63t-63.5 -97.5t-34 -118.5t-10.5 -135zM332 1413q0 25 17.5 43.5t43.5 18.5q25 0 43.5 -18.5t18.5 -43.5q0 -26 -18.5 -43.5 t-43.5 -17.5q-26 0 -43.5 17.5t-17.5 43.5zM700 1413q0 25 18 43.5t44 18.5q25 0 43 -18.5t18 -43.5q0 -26 -18 -43.5t-43 -17.5q-26 0 -44 17.5t-18 43.5z" />
<glyph unicode="&#xec;" horiz-adv-x="573" d="M-18 1536h100l213 -358h-37zM244 139v885h61v-881q0 -59 19.5 -81.5t74.5 -22.5v-49q-81 0 -118 36.5t-37 112.5z" />
<glyph unicode="&#xed;" horiz-adv-x="573" d="M244 139v885h61v-881q0 -59 19.5 -81.5t74.5 -22.5v-49q-81 0 -118 36.5t-37 112.5zM258 1178l213 358h100l-276 -358h-37z" />
<glyph unicode="&#xee;" horiz-adv-x="573" d="M-61 1178l297 358h81l297 -358h-49l-289 295l-288 -295h-49zM244 139v885h61v-881q0 -59 19.5 -81.5t74.5 -22.5v-49q-81 0 -118 36.5t-37 112.5z" />
<glyph unicode="&#xef;" horiz-adv-x="573" d="M31 1413q0 25 17.5 43.5t43.5 18.5q25 0 43.5 -18.5t18.5 -43.5q0 -26 -18.5 -43.5t-43.5 -17.5q-26 0 -43.5 17.5t-17.5 43.5zM244 139v885h61v-881q0 -59 19.5 -81.5t74.5 -22.5v-49q-81 0 -118 36.5t-37 112.5zM399 1413q0 25 18 43.5t44 18.5q25 0 43 -18.5t18 -43.5 q0 -26 -18 -43.5t-43 -17.5q-26 0 -44 17.5t-18 43.5z" />
<glyph unicode="&#xf0;" horiz-adv-x="1069" d="M113 512q0 98 9.5 171t36.5 142t72.5 112.5t122 70t181.5 26.5q198 0 307 -119q-68 232 -269 426l-325 -165v57l284 145q-111 97 -237 158h111q93 -53 182 -131l254 131v-57l-215 -111q317 -313 329 -817v-39q0 -98 -9 -171t-36 -142t-73 -112.5t-122 -70t-181 -26.5 t-181.5 26.5t-122 70t-72.5 112.5t-36.5 142t-9.5 171zM176 512q0 -61 3 -107.5t12 -97.5t25 -87.5t43 -71.5t64 -56t90.5 -34t121.5 -13q94 0 161 25t104.5 64t59 103.5t27.5 125.5t6 149t-6 149t-27.5 125.5t-59 103.5t-104.5 64t-161 25q-68 0 -121.5 -13t-90.5 -34 t-64 -56t-43 -71.5t-25 -87.5t-12 -97.5t-3 -107.5z" />
<glyph unicode="&#xf1;" horiz-adv-x="1097" d="M174 0v1024h31l28 -80q65 41 169 65.5t196 24.5q180 0 258 -66t78 -220v-748h-66v754q0 128 -66.5 176.5t-203.5 48.5q-222 0 -358 -84v-895h-66zM233 1270q6 88 53 136t126 48q41 0 74.5 -14.5t57 -36t45.5 -42.5t50 -35.5t61 -14.5q117 0 123 133h58q-6 -88 -53 -136 t-126 -48q-41 0 -74.5 14.5t-57 36t-45.5 42.5t-50 35.5t-61 14.5q-117 0 -123 -133h-58z" />
<glyph unicode="&#xf2;" horiz-adv-x="1150" d="M154 512q0 98 9 171t36 142t73 112.5t122 70t181 26.5t181.5 -26.5t122 -70t72.5 -112.5t36.5 -142t9.5 -171t-9.5 -171t-36.5 -142t-72.5 -112.5t-122 -70t-181.5 -26.5t-181 26.5t-122 70t-73 112.5t-36 142t-9 171zM217 512q0 -88 6 -149t27.5 -125.5t59 -103.5 t104.5 -64t161 -25q68 0 121.5 13t90.5 34t64 56t43 71.5t25 87.5t12 97.5t3 107.5t-3 107.5t-12 97.5t-25 87.5t-43 71.5t-64 56t-90.5 34t-121.5 13q-94 0 -161 -25t-104.5 -64t-59 -103.5t-27.5 -125.5t-6 -149zM281 1536h100l213 -358h-37z" />
<glyph unicode="&#xf3;" horiz-adv-x="1150" d="M154 512q0 98 9 171t36 142t73 112.5t122 70t181 26.5t181.5 -26.5t122 -70t72.5 -112.5t36.5 -142t9.5 -171t-9.5 -171t-36.5 -142t-72.5 -112.5t-122 -70t-181.5 -26.5t-181 26.5t-122 70t-73 112.5t-36 142t-9 171zM217 512q0 -88 6 -149t27.5 -125.5t59 -103.5 t104.5 -64t161 -25q68 0 121.5 13t90.5 34t64 56t43 71.5t25 87.5t12 97.5t3 107.5t-3 107.5t-12 97.5t-25 87.5t-43 71.5t-64 56t-90.5 34t-121.5 13q-94 0 -161 -25t-104.5 -64t-59 -103.5t-27.5 -125.5t-6 -149zM557 1178l213 358h100l-276 -358h-37z" />
<glyph unicode="&#xf4;" horiz-adv-x="1150" d="M154 512q0 98 9 171t36 142t73 112.5t122 70t181 26.5t181.5 -26.5t122 -70t72.5 -112.5t36.5 -142t9.5 -171t-9.5 -171t-36.5 -142t-72.5 -112.5t-122 -70t-181.5 -26.5t-181 26.5t-122 70t-73 112.5t-36 142t-9 171zM217 512q0 -88 6 -149t27.5 -125.5t59 -103.5 t104.5 -64t161 -25q68 0 121.5 13t90.5 34t64 56t43 71.5t25 87.5t12 97.5t3 107.5t-3 107.5t-12 97.5t-25 87.5t-43 71.5t-64 56t-90.5 34t-121.5 13q-94 0 -161 -25t-104.5 -64t-59 -103.5t-27.5 -125.5t-6 -149zM238 1178l297 358h81l297 -358h-49l-289 295l-288 -295 h-49z" />
<glyph unicode="&#xf5;" horiz-adv-x="1150" d="M154 512q0 98 9 171t36 142t73 112.5t122 70t181 26.5t181.5 -26.5t122 -70t72.5 -112.5t36.5 -142t9.5 -171t-9.5 -171t-36.5 -142t-72.5 -112.5t-122 -70t-181.5 -26.5t-181 26.5t-122 70t-73 112.5t-36 142t-9 171zM217 512q0 -88 6 -149t27.5 -125.5t59 -103.5 t104.5 -64t161 -25q68 0 121.5 13t90.5 34t64 56t43 71.5t25 87.5t12 97.5t3 107.5t-3 107.5t-12 97.5t-25 87.5t-43 71.5t-64 56t-90.5 34t-121.5 13q-94 0 -161 -25t-104.5 -64t-59 -103.5t-27.5 -125.5t-6 -149zM252 1270q6 89 52.5 136.5t125.5 47.5q49 0 90 -22.5 t65 -49t59.5 -49t74.5 -22.5q117 0 123 133h57q-6 -89 -52.5 -136.5t-125.5 -47.5q-49 0 -90 22.5t-65 49t-59.5 49t-74.5 22.5q-117 0 -123 -133h-57z" />
<glyph unicode="&#xf6;" horiz-adv-x="1150" d="M154 512q0 98 9 171t36 142t73 112.5t122 70t181 26.5t181.5 -26.5t122 -70t72.5 -112.5t36.5 -142t9.5 -171t-9.5 -171t-36.5 -142t-72.5 -112.5t-122 -70t-181.5 -26.5t-181 26.5t-122 70t-73 112.5t-36 142t-9 171zM217 512q0 -88 6 -149t27.5 -125.5t59 -103.5 t104.5 -64t161 -25q68 0 121.5 13t90.5 34t64 56t43 71.5t25 87.5t12 97.5t3 107.5t-3 107.5t-12 97.5t-25 87.5t-43 71.5t-64 56t-90.5 34t-121.5 13q-94 0 -161 -25t-104.5 -64t-59 -103.5t-27.5 -125.5t-6 -149zM330 1413q0 25 17.5 43.5t43.5 18.5q25 0 43.5 -18.5 t18.5 -43.5q0 -26 -18.5 -43.5t-43.5 -17.5q-26 0 -43.5 17.5t-17.5 43.5zM698 1413q0 25 18 43.5t44 18.5q25 0 43 -18.5t18 -43.5q0 -26 -18 -43.5t-43 -17.5q-26 0 -44 17.5t-18 43.5z" />
<glyph unicode="&#xf7;" horiz-adv-x="1064" d="M133 670v57h799v-57h-799zM471 350q0 25 17.5 43.5t43.5 18.5q25 0 43.5 -18.5t18.5 -43.5q0 -26 -18.5 -43.5t-43.5 -17.5q-26 0 -43.5 17.5t-17.5 43.5zM471 1047q0 25 17.5 43t43.5 18q25 0 43.5 -18t18.5 -43q0 -26 -18.5 -44t-43.5 -18q-26 0 -43.5 18t-17.5 44z " />
<glyph unicode="&#xf8;" horiz-adv-x="1150" d="M154 512q0 98 9 171t36 142t73 112.5t122 70t181 26.5q157 0 254 -59l31 49h74l-55 -88q67 -66 92.5 -170t25.5 -254q0 -98 -9.5 -171t-36.5 -142t-72.5 -112.5t-122 -70t-181.5 -26.5q-161 0 -253 59l-31 -49h-74l55 86q-67 64 -92.5 169.5t-25.5 256.5zM217 512 q0 -133 18 -223.5t70 -149.5l492 785q-80 55 -222 55q-94 0 -161 -25t-104.5 -64t-59 -103.5t-27.5 -125.5t-6 -149zM352 98q80 -53 223 -53q68 0 121.5 13t90.5 34t64 56t43 71.5t25 87.5t12 97.5t3 107.5q0 132 -18 222t-70 149z" />
<glyph unicode="&#xf9;" horiz-adv-x="1097" d="M164 276v748h65v-754q0 -128 67 -176.5t204 -48.5q222 0 358 84v895h66v-1024h-31l-29 80q-65 -41 -168.5 -65.5t-195.5 -24.5q-180 0 -258 66t-78 220zM250 1536h100l213 -358h-37z" />
<glyph unicode="&#xfa;" horiz-adv-x="1097" d="M164 276v748h65v-754q0 -128 67 -176.5t204 -48.5q222 0 358 84v895h66v-1024h-31l-29 80q-65 -41 -168.5 -65.5t-195.5 -24.5q-180 0 -258 66t-78 220zM526 1178l213 358h101l-277 -358h-37z" />
<glyph unicode="&#xfb;" horiz-adv-x="1097" d="M164 276v748h65v-754q0 -128 67 -176.5t204 -48.5q222 0 358 84v895h66v-1024h-31l-29 80q-65 -41 -168.5 -65.5t-195.5 -24.5q-180 0 -258 66t-78 220zM207 1178l297 358h82l297 -358h-49l-289 295l-289 -295h-49z" />
<glyph unicode="&#xfc;" horiz-adv-x="1097" d="M164 276v748h65v-754q0 -128 67 -176.5t204 -48.5q222 0 358 84v895h66v-1024h-31l-29 80q-65 -41 -168.5 -65.5t-195.5 -24.5q-180 0 -258 66t-78 220zM299 1413q0 25 17.5 43.5t43.5 18.5q25 0 43.5 -18.5t18.5 -43.5q0 -26 -18.5 -43.5t-43.5 -17.5q-26 0 -43.5 17.5 t-17.5 43.5zM668 1413q0 25 17.5 43.5t43.5 18.5q25 0 43.5 -18.5t18.5 -43.5q0 -26 -18.5 -43.5t-43.5 -17.5q-26 0 -43.5 17.5t-17.5 43.5z" />
<glyph unicode="&#xfd;" horiz-adv-x="1007" d="M82 1024h74l348 -938l350 938h72l-600 -1536h-70l219 522zM485 1178l213 358h101l-277 -358h-37z" />
<glyph unicode="&#xfe;" horiz-adv-x="1165" d="M174 -512v2048h62v-588q64 41 162 63.5t190 22.5q99 0 174 -26.5t122 -71.5t76.5 -113t40.5 -142.5t11 -168.5t-11 -168.5t-40.5 -142.5t-76.5 -113t-122 -71.5t-174 -26.5q-92 0 -190 22.5t-162 63.5v-588h-62zM236 131q139 -86 352 -86q88 0 154 27t104.5 70t62 106.5 t31.5 125.5t8 138t-8 138t-31.5 125.5t-62 106.5t-104.5 70t-154 27q-213 0 -352 -86v-762z" />
<glyph unicode="&#xff;" horiz-adv-x="1007" d="M82 1024h74l348 -938l350 938h72l-600 -1536h-70l219 522zM258 1413q0 25 17.5 43.5t43.5 18.5q25 0 43.5 -18.5t18.5 -43.5q0 -26 -18.5 -43.5t-43.5 -17.5q-26 0 -43.5 17.5t-17.5 43.5zM627 1413q0 25 17.5 43.5t43.5 18.5q25 0 43.5 -18.5t18.5 -43.5 q0 -26 -18.5 -43.5t-43.5 -17.5q-26 0 -43.5 17.5t-17.5 43.5z" />
<glyph unicode="&#x152;" horiz-adv-x="1841" d="M143 768q0 108 7 194.5t25 168t47.5 142.5t75 112t106.5 83.5t143.5 50t185.5 17.5h965v-59h-705v-652h629v-57h-629v-709h705v-59h-965q-103 0 -185.5 17.5t-143.5 50t-106.5 83.5t-75 112t-47.5 142.5t-25 168t-7 194.5zM211 768q0 -149 14.5 -257t50 -197t96 -143 t152.5 -83t219 -29h185v1418h-185q-127 0 -219 -29t-152.5 -83t-96 -143t-50 -197t-14.5 -257z" />
<glyph unicode="&#x153;" horiz-adv-x="1888" d="M154 512q0 98 9 171t36 142t73 112.5t122 70t181 26.5q171 0 263.5 -65t128.5 -189q40 123 134 188.5t257 65.5q72 0 128 -13.5t95.5 -36.5t67.5 -61t44.5 -78.5t26 -98t12.5 -110.5t3 -124v-29h-738q1 -75 10.5 -135t34 -118.5t63.5 -97.5t103.5 -63t149.5 -24 q170 0 325 51v-55q-59 -23 -150 -37t-175 -14q-164 0 -257.5 64.5t-133.5 187.5q-36 -122 -128.5 -187t-263.5 -65q-105 0 -181 26.5t-122 70t-73 112.5t-36 142t-9 171zM217 512q0 -88 6 -149t27.5 -125.5t59 -103.5t104.5 -64t161 -25q68 0 121.5 13t90.5 34t64 56 t43 71.5t25 87.5t12 97.5t3 107.5t-3 107.5t-12 97.5t-25 87.5t-43 71.5t-64 56t-90.5 34t-121.5 13q-94 0 -161 -25t-104.5 -64t-59 -103.5t-27.5 -125.5t-6 -149zM997 541h676q0 55 -2 95t-9.5 88.5t-20.5 83t-36.5 69t-56 55.5t-81 34t-109.5 13q-85 0 -149.5 -24 t-103.5 -63t-63.5 -97.5t-34 -118.5t-10.5 -135z" />
<glyph unicode="&#x178;" horiz-adv-x="1327" d="M82 1536h80l502 -848l501 848h80l-549 -907v-629h-65v629zM418 1925q0 25 17.5 43.5t43.5 18.5q25 0 43.5 -18.5t18.5 -43.5q0 -26 -18.5 -43.5t-43.5 -17.5q-26 0 -43.5 17.5t-17.5 43.5zM786 1925q0 25 18 43.5t44 18.5q25 0 43 -18.5t18 -43.5q0 -26 -18 -43.5 t-43 -17.5q-26 0 -44 17.5t-18 43.5z" />
<glyph unicode="&#x2c6;" horiz-adv-x="1105" d="M236 1178l296 358h82l297 -358h-49l-289 295l-288 -295h-49z" />
<glyph unicode="&#x2dc;" horiz-adv-x="1232" d="M291 1270q6 89 52.5 136.5t125.5 47.5q49 0 90 -22.5t65 -49t59.5 -49t74.5 -22.5q117 0 123 133h57q-6 -89 -52.5 -136.5t-125.5 -47.5q-49 0 -90 22.5t-65 49t-59.5 49t-74.5 22.5q-117 0 -123 -133h-57z" />
<glyph unicode="&#x2000;" horiz-adv-x="1034" />
<glyph unicode="&#x2001;" horiz-adv-x="2068" />
<glyph unicode="&#x2002;" horiz-adv-x="1034" />
<glyph unicode="&#x2003;" horiz-adv-x="2068" />
<glyph unicode="&#x2004;" horiz-adv-x="689" />
<glyph unicode="&#x2005;" horiz-adv-x="517" />
<glyph unicode="&#x2006;" horiz-adv-x="344" />
<glyph unicode="&#x2007;" horiz-adv-x="344" />
<glyph unicode="&#x2008;" horiz-adv-x="258" />
<glyph unicode="&#x2009;" horiz-adv-x="413" />
<glyph unicode="&#x200a;" horiz-adv-x="114" />
<glyph unicode="&#x2010;" horiz-adv-x="757" d="M145 670v57h467v-57h-467z" />
<glyph unicode="&#x2011;" horiz-adv-x="757" d="M145 670v57h467v-57h-467z" />
<glyph unicode="&#x2012;" horiz-adv-x="757" d="M145 670v57h467v-57h-467z" />
<glyph unicode="&#x2013;" horiz-adv-x="1024" d="M143 670v57h738v-57h-738z" />
<glyph unicode="&#x2014;" horiz-adv-x="2048" d="M143 670v57h1762v-57h-1762z" />
<glyph unicode="&#x2018;" horiz-adv-x="286" d="M16 1024q3 95 22.5 183t44.5 145t49 100.5t41 63.5l17 20h29q-2 -2 -5 -6.5t-12 -20t-18 -33t-20 -46t-20 -58t-17 -70t-12 -82t-3.5 -92.5t7.5 -104h-103z" />
<glyph unicode="&#x2019;" horiz-adv-x="286" d="M68 1024q2 2 5 6.5t12 20t18 33t20 46t20 58t17 70t12 82t3.5 92.5t-7.5 104h102q-3 -95 -22.5 -183t-44.5 -145t-49 -100.5t-41 -63.5l-17 -20h-28z" />
<glyph unicode="&#x201a;" horiz-adv-x="286" d="M68 -328q2 2 5 6.5t12 20t18 33t20 46t20 58t17 70t12 82t3.5 92.5t-7.5 104h102q-3 -95 -22.5 -183t-44.5 -145t-49 -100.5t-41 -63.5l-17 -20h-28z" />
<glyph unicode="&#x201c;" horiz-adv-x="512" d="M16 1024q3 95 22.5 183t44.5 145t49 100.5t41 63.5l17 20h29q-2 -2 -5 -6.5t-12 -20t-18 -33t-20 -46t-20 -58t-17 -70t-12 -82t-3.5 -92.5t7.5 -104h-103zM242 1024q3 95 22.5 183t44.5 145t49 100.5t41 63.5l17 20h28q-2 -2 -5 -6.5t-12 -20t-18 -33t-20 -46t-20 -58 t-17 -70t-12 -82t-3.5 -92.5t7.5 -104h-102z" />
<glyph unicode="&#x201d;" horiz-adv-x="512" d="M68 1024q2 2 5 6.5t12 20t18 33t20 46t20 58t17 70t12 82t3.5 92.5t-7.5 104h102q-3 -95 -22.5 -183t-44.5 -145t-49 -100.5t-41 -63.5l-17 -20h-28zM293 1024q2 2 5 6.5t12 20t18 33t20 46t20 58t17 70t12 82t3.5 92.5t-7.5 104h103q-3 -95 -22.5 -183t-44.5 -145 t-49 -100.5t-41 -63.5l-17 -20h-29z" />
<glyph unicode="&#x201e;" horiz-adv-x="512" d="M68 -328q2 2 5 6.5t12 20t18 33t20 46t20 58t17 70t12 82t3.5 92.5t-7.5 104h102q-3 -95 -22.5 -183t-44.5 -145t-49 -100.5t-41 -63.5l-17 -20h-28zM293 -328q2 2 5 6.5t12 20t18 33t20 46t20 58t17 70t12 82t3.5 92.5t-7.5 104h103q-3 -95 -22.5 -183t-44.5 -145 t-49 -100.5t-41 -63.5l-17 -20h-29z" />
<glyph unicode="&#x2022;" horiz-adv-x="819" d="M133 768q0 115 80.5 195.5t196.5 80.5t196 -80t80 -196t-80 -196t-196 -80t-196.5 80.5t-80.5 195.5z" />
<glyph unicode="&#x2026;" horiz-adv-x="2027" d="M276 51q0 25 18 43.5t44 18.5q25 0 43 -18.5t18 -43.5q0 -26 -18 -43.5t-43 -17.5q-26 0 -44 17.5t-18 43.5zM952 51q0 25 18 43.5t44 18.5q25 0 43 -18.5t18 -43.5q0 -26 -18 -43.5t-43 -17.5q-26 0 -44 17.5t-18 43.5zM1628 51q0 25 18 43.5t44 18.5q25 0 43 -18.5 t18 -43.5q0 -26 -18 -43.5t-43 -17.5q-26 0 -44 17.5t-18 43.5z" />
<glyph unicode="&#x202f;" horiz-adv-x="413" />
<glyph unicode="&#x2039;" horiz-adv-x="624" d="M113 489v46l389 331v-61l-326 -293l326 -293v-63z" />
<glyph unicode="&#x203a;" horiz-adv-x="624" d="M123 156v63l326 293l-326 293v61l389 -331v-46z" />
<glyph unicode="&#x205f;" horiz-adv-x="517" />
<glyph unicode="&#x20ac;" d="M74 594v57h184q-2 37 -2 117q0 78 2 117h-184v57h186q11 146 42.5 253t93 188t161 122t238.5 41q83 0 174 -15t137 -34v-59q-136 49 -311 49q-120 0 -206.5 -38t-139.5 -112t-81.5 -170t-39.5 -225h610l-23 -57h-591q-2 -39 -2 -117q0 -80 2 -117h512l-23 -57h-485 q11 -130 39 -226t81.5 -170t140 -111.5t206.5 -37.5q175 0 311 49v-59q-46 -19 -137 -34t-174 -15q-139 0 -238.5 41t-161 122t-93 188t-42.5 253h-186z" />
<glyph unicode="&#x2122;" horiz-adv-x="1177" d="M31 1499v37h413v-37h-182v-475h-49v475h-182zM557 1024v512h43l199 -397l200 397h41v-512h-41l5 438l-185 -372h-39l-184 372l4 -438h-43z" />
<glyph unicode="&#xe000;" horiz-adv-x="1024" d="M0 0v1024h1024v-1024h-1024z" />
</font>
</defs>
</svg>
